<?xml version="1.0" standalone="no"?>
<!DOCTYPE svg PUBLIC "-//W3C//DTD SVG 20010904//EN"
 "http://www.w3.org/TR/2001/REC-SVG-20010904/DTD/svg10.dtd">
<svg version="1.0" xmlns="http://www.w3.org/2000/svg"
 width="260.000000pt" height="260.000000pt" viewBox="0 0 260.000000 260.000000"
 preserveAspectRatio="xMidYMid meet">
<metadata>
Created by potrace 1.14, written by Peter Selinger 2001-2017
</metadata>
<g transform="translate(0.000000,260.000000) scale(0.100000,-0.100000)"
fill="#000000" stroke="none">
<path d="M0 1295 l0 -1295 1300 0 1300 0 0 1295 0 1295 -1300 0 -1300 0 0
-1295z m1350 1042 c0 -24 6 -49 12 -55 9 -9 12 -60 10 -195 l-3 -182 65 -73
66 -73 0 -459 0 -460 -205 0 -205 0 0 451 c0 320 3 457 12 472 6 12 36 49 65
81 l55 59 -3 183 c-3 136 0 187 9 196 6 6 12 31 12 55 l0 43 55 0 55 0 0 -43z
m-289 -1695 c65 -72 12 -157 -108 -177 -24 -4 -43 -9 -43 -13 0 -15 66 -122
102 -165 31 -38 38 -51 28 -60 -17 -17 -70 46 -112 134 -18 39 -35 63 -39 56
-3 -7 -14 -46 -24 -87 -21 -90 -22 -91 -41 -83 -12 4 -14 14 -9 40 6 32 101
324 120 366 7 17 6 18 -30 3 -44 -19 -45 -19 -45 -7 0 17 55 30 114 27 52 -2
62 -6 87 -34z m473 -13 c-1 -50 -39 -138 -89 -204 -31 -40 -40 -71 -37 -117 5
-50 61 2 92 84 21 57 41 83 59 76 6 -2 0 -26 -14 -56 -56 -122 -8 -169 57 -56
44 79 68 89 43 19 -17 -48 -17 -56 -5 -75 8 -12 13 -11 33 8 24 22 24 24 9 65
-13 37 -13 46 -1 72 18 37 53 45 69 15 9 -17 8 -32 -4 -67 -9 -26 -16 -48 -16
-50 0 -10 36 0 52 14 16 14 18 14 13 1 -7 -19 -49 -42 -65 -36 -7 2 -26 -9
-43 -25 -35 -32 -66 -32 -82 0 -11 22 -12 22 -31 4 -33 -33 -61 -35 -79 -7
l-16 24 -24 -24 c-13 -13 -31 -24 -39 -24 -21 0 -46 28 -46 51 0 17 -3 18 -21
9 -11 -7 -26 -9 -34 -7 -7 3 -25 -8 -41 -24 -30 -31 -53 -36 -72 -17 -27 27
-4 127 33 141 18 8 18 8 0 -36 -17 -40 -20 -83 -6 -91 5 -3 20 4 35 15 24 19
25 22 11 42 -21 31 -19 90 4 111 47 43 78 -14 47 -88 -14 -33 -14 -36 2 -36
30 0 39 14 66 93 25 75 72 176 104 225 22 33 37 21 36 -29z m76 -78 c0 -20
-25 -35 -41 -25 -13 8 -11 32 4 37 25 11 37 7 37 -12z m-480 -245 c0 -8 -5
-18 -11 -22 -14 -8 -33 11 -25 25 10 16 36 13 36 -3z"/>
<path d="M1260 2325 c0 -33 2 -35 35 -35 33 0 35 2 35 35 0 33 -2 35 -35 35
-33 0 -35 -2 -35 -35z"/>
<path d="M1234 2255 c-11 -26 10 -36 67 -33 46 3 54 6 54 23 0 17 -8 20 -58
23 -45 2 -59 0 -63 -13z"/>
<path d="M1240 2069 l0 -130 53 3 52 3 3 128 3 127 -56 0 -55 0 0 -131z"/>
<path d="M1235 1900 c-3 -10 -33 -49 -66 -85 l-59 -65 0 -445 0 -445 185 0
185 0 0 448 0 447 -65 73 c-36 40 -65 77 -65 82 0 6 -24 10 -54 10 -45 0 -56
-3 -61 -20z m15 -48 c0 -10 -89 -116 -101 -120 -21 -8 -6 20 39 72 45 53 62
66 62 48z m210 -317 l0 -175 -160 0 -160 0 0 175 0 175 160 0 160 0 0 -175z
m-300 -390 c0 -83 -4 -135 -10 -135 -6 0 -10 52 -10 135 0 83 4 135 10 135 6
0 10 -52 10 -135z"/>
<path d="M1160 1535 l0 -155 140 0 140 0 0 155 0 155 -140 0 -140 0 0 -155z"/>
<path d="M951 633 c-45 -139 -50 -163 -33 -163 30 1 99 37 116 61 16 24 21 85
8 105 -9 14 -47 34 -65 34 -7 0 -19 -17 -26 -37z"/>
<path d="M1470 548 c-21 -46 -41 -94 -45 -108 l-6 -25 20 25 c43 52 101 190
80 190 -6 0 -27 -37 -49 -82z"/>
<path d="M1712 458 c-14 -14 -16 -98 -4 -98 12 0 32 47 32 75 0 29 -12 39 -28
23z"/>
<path d="M1292 448 c-14 -14 -16 -57 -3 -77 7 -11 11 -10 19 6 26 48 14 101
-16 71z"/>
</g>
</svg>
