<svg width="57" height="117" viewBox="0 0 57 117" fill="none" xmlns="http://www.w3.org/2000/svg">
<path d="M18.6991 73.6881V58.9434H19.7334V73.6881H18.6991ZM24.1345 27.6657L25.0869 28.0938L24.9628 28.3828L24.8254 28.665L24.6765 28.9386L24.5159 29.2054L24.3463 29.4653L24.1676 29.7192L23.9806 29.9671L23.787 30.2098L23.5876 30.4474L23.384 30.6807L23.1755 30.9097L22.9637 31.1353L22.7502 31.3583L22.5351 31.5771L22.32 31.7941L22.1048 32.0085L21.8914 32.2212L21.6804 32.4322L21.4718 32.6424L21.2675 32.8517L21.0681 33.0601L20.8744 33.2677L20.6874 33.4753L20.5079 33.682L20.3374 33.8878L20.1753 34.0945L20.023 34.3013L19.8824 34.508L19.7533 34.7147L19.6358 34.9214L19.5315 35.129L19.4405 35.3383L18.4906 34.9043L18.6065 34.6392L18.7364 34.381L18.8787 34.1289L19.0326 33.8827L19.1964 33.6425L19.3694 33.4066L19.5506 33.175L19.7392 32.9469L19.9337 32.7222L20.1339 32.5009L20.3383 32.2821L20.546 32.0651L20.757 31.8498L20.9696 31.6354L21.1839 31.4218L21.3974 31.2091L21.61 30.9964L21.821 30.7828L22.0304 30.5692L22.2356 30.3556L22.4375 30.1403L22.6336 29.925L22.8239 29.7072L23.0075 29.4885L23.183 29.268L23.3501 29.0459L23.5081 28.8211L23.6563 28.5947L23.7936 28.3665L23.9202 28.1349L24.0344 27.9016L24.1362 27.664L24.1345 27.6657ZM36.5848 37.2845H19.1584V36.1874H36.5848L37.1019 36.7355L36.5848 37.2836V37.2845ZM36.5848 36.1874H37.1019V36.7355L36.5848 36.1874ZM36.0676 54.5346V36.7364H37.1019V54.5346L36.5848 55.0827L36.0676 54.5346ZM37.1019 54.5346V55.0827H36.5848L37.1019 54.5346ZM19.1584 53.9865H36.5848V55.0836H19.1584L18.6412 54.5355L19.1584 53.9874V53.9865ZM19.1584 55.0836H18.6412V54.5355L19.1584 55.0836ZM19.6755 36.7364V54.5346H18.6412V36.7364L19.1584 36.1883L19.6755 36.7364ZM18.6412 36.7364V36.1883H19.1584L18.6412 36.7364ZM16.5445 81.7243H38.7634V82.8214H16.5445L16.0274 82.2733L16.5445 81.7252V81.7243ZM16.5445 82.8214H16.0274V82.2733L16.5445 82.8214ZM16.0274 35.1187H17.0617V36.588V38.0582V39.5292V41.0003V42.4722V43.9449V45.4177V46.8904V48.364V49.8376V51.3121V52.7865V54.261V55.7355V57.2099V58.6853V60.1606V61.6359V63.1112V64.5866V66.0619V67.5372V69.0125V70.487V71.9615V73.4359V74.9104V76.384V77.8576V79.3312V80.804V82.2767H16.0274V80.804V79.3312V77.8576V76.384V74.9104V73.4359V71.9615V70.487V69.0125V67.5372V66.0619V64.5866V63.1112V61.6359V60.1606V58.6853V57.2099V55.7355V54.261V52.7865V51.3121V49.8376V48.364V46.8904V45.4177V43.9449V42.4722V41.0003V39.5292V38.0582V36.588V35.1187ZM24.0592 23.5228V24.6199L24.5763 24.0718L24.5499 24.4878L24.4762 24.8969L24.3587 25.2975L24.204 25.6878L24.0154 26.0703L23.7969 26.4452L23.5528 26.814L23.2856 27.1785L22.9984 27.5388L22.694 27.8956L22.3746 28.2499L22.0436 28.6015L21.7027 28.9515L21.3552 29.2997L21.0044 29.6463L20.651 29.9919L20.3002 30.335L19.9535 30.6773L19.6134 31.0187L19.2833 31.3575L18.9656 31.6946L18.6636 32.03L18.3806 32.3628L18.1183 32.6921L17.8792 33.0181L17.6673 33.3389L17.4845 33.6545L17.3322 33.9633L17.2131 34.2635L17.1279 34.556L17.0766 34.8391L17.0592 35.1161H16.0249L16.0506 34.6984L16.125 34.2884L16.2425 33.887L16.3972 33.495L16.5859 33.1116L16.8043 32.735L17.0484 32.3653L17.3149 32.0008L17.602 31.6397L17.9073 31.282L18.2259 30.9277L18.5568 30.5752L18.8977 30.2244L19.2452 29.8762L19.5961 29.5296L19.9486 29.1839L20.2994 28.8409L20.6461 28.4986L20.9861 28.1581L21.3163 27.8193L21.634 27.4822L21.9352 27.1477L22.219 26.8157L22.4813 26.4863L22.7196 26.1613L22.9314 25.8405L23.1143 25.5257L23.2665 25.2177L23.3849 24.9184L23.4701 24.6276L23.5214 24.3454L23.5388 24.0701L24.0559 23.522L24.0592 23.5228ZM23.5421 24.0709V23.5228H24.0592L23.5421 24.0709ZM31.492 24.0237H30.4577L30.9748 24.5718H30.538L30.1441 24.5727L29.7891 24.5736L29.4722 24.5744L29.1901 24.5753L28.9394 24.577L28.7168 24.5787L28.5199 24.5804L28.3461 24.5821L28.1922 24.5839L28.0565 24.5856L27.934 24.5881L27.8223 24.5899L27.7197 24.5924L27.6221 24.5942L27.5286 24.5967L27.4326 24.5993L27.335 24.601L27.2299 24.6036L27.1174 24.6053L26.9933 24.6079L26.8534 24.6096L26.697 24.6113L26.5216 24.613L26.323 24.6147L26.0996 24.6165L25.8473 24.6182L25.5626 24.619L25.2449 24.6199L24.8899 24.6207L24.4953 24.6216H24.0576V23.5245H24.4944L24.8883 23.5237L25.2433 23.5228L25.5602 23.522L25.8423 23.5211L26.093 23.5194L26.3156 23.5177L26.5125 23.516L26.6871 23.5142L26.8402 23.5125L26.9759 23.5108L27.0983 23.5082L27.2092 23.5065L27.3118 23.504L27.4095 23.5022L27.503 23.4997L27.5989 23.4971L27.6966 23.4954L27.8008 23.4928L27.9134 23.4911L28.0375 23.4885L28.1773 23.4868L28.3329 23.4851L28.5083 23.4834L28.7069 23.4817L28.9303 23.4799L29.1826 23.4782L29.4664 23.4774L29.7842 23.4765L30.1391 23.4757L30.5338 23.4748H30.9715L31.4887 24.0229L31.492 24.0237ZM30.9748 23.4757H31.492V24.0237L30.9748 23.4757ZM39.2797 35.0038H38.2454L38.2281 34.7344L38.1751 34.4574L38.0866 34.1709L37.9641 33.8741L37.8069 33.5687L37.6174 33.2557L37.3981 32.9374L37.1507 32.6132L36.8785 32.2856L36.5848 31.9545L36.272 31.6208L35.9427 31.2854L35.601 30.9475L35.2485 30.6078L34.8894 30.2664L34.5253 29.9242L34.1596 29.5802L33.7955 29.2354L33.4356 28.8889L33.0831 28.5406L32.7397 28.1907L32.4088 27.8373L32.0935 27.4822L31.7965 27.1236L31.5201 26.7617L31.2669 26.3946L31.041 26.0214L30.8449 25.6406L30.6836 25.2512L30.5619 24.8523L30.4842 24.4432L30.4569 24.0263H31.4911L31.5085 24.2957L31.5615 24.5727L31.65 24.8592L31.7725 25.156L31.9297 25.4613L32.1192 25.7744L32.3384 26.0926L32.5858 26.4169L32.8581 26.7445L33.1518 27.0756L33.4646 27.4093L33.7939 27.7447L34.1356 28.0826L34.4881 28.4223L34.8472 28.7637L35.2104 29.1059L35.5761 29.4499L35.9402 29.7947L36.3001 30.1412L36.6526 30.4894L36.996 30.8394L37.327 31.1928L37.6422 31.5479L37.9393 31.9064L38.2156 32.2684L38.4688 32.6355L38.6947 33.0086L38.8908 33.3895L39.0522 33.7789L39.1738 34.1777L39.2516 34.5869L39.2789 35.0038H39.2797ZM38.2454 82.2733V35.0038H39.2797V82.2733L38.7626 82.8214L38.2454 82.2733ZM39.2797 82.2733V82.8214H38.7626L39.2797 82.2733ZM24.5755 8.94114V24.0709H23.5412V8.94114L24.0584 8.39304L24.5755 8.94114ZM23.5412 8.94114V8.39304H24.0584L23.5412 8.94114ZM30.974 9.48924H24.0576V8.39219H30.974L31.4911 8.94029L30.974 9.48839V9.48924ZM30.974 8.39219H31.4911V8.94029L30.974 8.39219ZM30.4569 24.0229V8.94029H31.4911V24.0229H30.4569ZM23.3857 7.67511L24.3794 8.51056L23.7373 9.37088L22.7436 8.53543L22.5475 8.10656L23.3857 7.67511ZM22.7436 8.53543L22.5483 8.3716L22.5475 8.10656L22.7436 8.53543ZM23.5776 6.30186L23.5818 8.10398L22.5475 8.10656L22.5434 6.30443L22.7684 5.85069L23.5776 6.30186ZM22.5434 6.30443L22.5425 6.01452L22.7676 5.85069L22.5425 6.30443H22.5434ZM24.3505 6.0291L23.3526 6.75561L22.7684 5.85069L23.7663 5.12417L24.0584 5.02811L24.3505 6.0291ZM23.7663 5.12417L23.8979 5.02811H24.0584L23.7663 5.12417ZM30.9748 6.12516H24.0584V5.02811H30.9748L31.2669 5.12417L30.9748 6.12516ZM30.9748 5.02811H31.1354L31.2669 5.12417L30.9748 5.02811ZM31.6748 6.75132L30.6819 6.0291L31.2661 5.12417L32.259 5.8464L32.4841 6.29843L31.6748 6.75046V6.75132ZM32.259 5.8464L32.4841 6.01023V6.29929L32.259 5.84725V5.8464ZM31.4498 8.10484V6.29843H32.4841V8.10484L32.288 8.53457L31.4498 8.10484ZM32.4841 8.10484V8.36989L32.288 8.53457L32.4841 8.10484ZM30.6538 8.51056L31.6467 7.67511L32.2888 8.53457L31.2959 9.37002L30.6538 8.51056ZM25.5635 0.548957V5.57535H24.5292V0.548957L25.0463 0.000857746L25.5635 0.548957ZM24.5292 0.548957V0.000857746H25.0463L24.5292 0.548957ZM29.9861 1.09706H25.0463V0H29.9861L30.5032 0.5481L29.9861 1.0962V1.09706ZM29.9861 0H30.5032V0.5481L29.9861 0ZM29.4689 5.57535V0.548957H30.5032V5.57535H29.4689Z" fill="white"/>
<path d="M12.5143 116.043C11.8623 116.043 11.043 115.392 10.0564 114.089C9.06971 112.787 8.08722 111.22 7.10973 109.389C6.1314 107.558 5.33542 105.879 4.72094 104.351C4.29298 105.859 3.79008 107.719 3.21224 109.932C2.89585 111.185 2.43957 112.889 1.84342 115.044C1.35883 115.044 0.930867 114.902 0.558687 114.618C0.186507 114.334 0 113.987 0 113.575C0 113.282 0.130721 112.743 0.391331 111.959C1.63859 107.886 2.78344 104.376 3.82671 101.428C4.86915 98.4816 6.07978 95.363 7.45776 92.0725C6.75004 92.1897 6.13973 92.3616 5.62767 92.5866C5.11561 92.8115 4.56192 93.0904 3.96576 93.4231C3.6119 93.6387 3.38876 93.7464 3.2955 93.7464C3.16478 93.7464 2.98827 93.6481 2.76429 93.4522C2.54115 93.2563 2.42958 93.0895 2.42958 92.9527C4.81337 91.8758 6.90823 91.3369 8.71418 91.3369C9.86902 91.3369 10.9864 91.5328 12.0663 91.9245C13.1462 92.3163 14.0354 92.9236 14.734 93.7456C15.4317 94.5676 15.7814 95.5957 15.7814 96.83C15.7814 98.5723 15.1154 99.9186 13.784 100.869C12.4526 101.818 10.9997 102.445 9.4269 102.749C7.85325 103.052 6.49858 103.204 5.36206 103.204C5.54857 103.556 5.72009 103.88 5.87912 104.173C6.03731 104.467 6.18136 104.731 6.31125 104.966C7.11222 106.474 7.81495 107.718 8.4211 108.696C9.02558 109.676 9.77993 110.709 10.6833 111.795C11.5859 112.881 12.6716 113.974 13.938 115.07C13.8265 115.325 13.6258 115.551 13.3369 115.746C13.0488 115.942 12.7732 116.04 12.5134 116.04L12.5143 116.043ZM5.16723 102.736C6.63846 102.638 8.0356 102.344 9.35696 101.854C10.6792 101.365 11.7682 100.65 12.6258 99.7099C13.4826 98.769 13.9106 97.6049 13.9106 96.2141C13.9106 94.7258 13.431 93.6438 12.471 92.9689C11.5126 92.2932 10.3253 91.9553 8.90985 91.9553C7.79247 94.3058 6.54521 97.8991 5.1664 102.736H5.16723ZM16.7881 112.782C16.5275 112.782 16.3135 112.714 16.1453 112.577C15.9779 112.44 15.8938 112.244 15.8938 111.989C15.8938 111.676 16.0704 111.397 16.4242 111.152C16.7781 110.907 17.1411 110.785 17.5133 110.785C17.997 110.785 18.2393 111.02 18.2393 111.49C18.2393 111.784 18.0861 112.072 17.7789 112.356C17.4717 112.64 17.1411 112.782 16.7872 112.782H16.7881ZM23.5764 113.428C22.8129 113.428 22.2542 113.183 21.8995 112.694C21.5457 112.205 21.3691 111.558 21.3691 110.755C21.3691 109.952 21.5273 109.11 21.8446 108.229C22.161 107.348 22.5706 106.613 23.0735 106.026C23.5764 105.438 24.0793 105.144 24.5822 105.144C24.7496 105.144 24.9452 105.194 25.1684 105.291C24.9444 105.487 24.6755 105.917 24.3582 106.583C24.0418 107.25 23.7663 107.959 23.534 108.712C23.3008 109.467 23.1851 110.078 23.1851 110.549C23.1851 111.665 23.5198 112.224 24.1909 112.224C24.5822 112.224 25.0477 112.008 25.588 111.577C26.1284 111.146 26.6588 110.578 27.18 109.873C26.6588 109.422 26.2533 108.836 25.9652 108.111C25.6763 107.387 25.5322 106.632 25.5322 105.85C25.5322 104.831 25.7795 103.959 26.2724 103.235C26.7662 102.51 27.4323 102.148 28.2699 102.148C28.9776 102.148 29.4755 102.348 29.7644 102.75C30.0534 103.151 30.1974 103.704 30.1974 104.409C30.1974 105.153 30.025 105.991 29.6803 106.92C29.3356 107.85 28.8844 108.756 28.3257 109.637C28.6612 109.833 29.0151 109.931 29.3873 109.931C29.9276 109.931 30.4863 109.76 31.0642 109.417C31.6412 109.075 32.0791 108.541 32.3772 107.817L32.7119 108.11C32.358 108.972 31.8551 109.608 31.2032 110.019C30.5513 110.431 29.881 110.636 29.1916 110.636C28.6887 110.636 28.2416 110.538 27.8502 110.342C27.18 111.262 26.4681 112.007 25.7137 112.575C24.9594 113.143 24.2475 113.427 23.5772 113.427L23.5764 113.428ZM27.6821 109.11C28.1658 108.346 28.5571 107.568 28.856 106.775C29.1533 105.981 29.3032 105.253 29.3032 104.586C29.3032 104.038 29.2241 103.627 29.065 103.353C28.9068 103.079 28.707 102.941 28.4647 102.941C28.2041 102.941 27.9385 103.074 27.6687 103.338C27.3981 103.603 27.175 103.964 26.9985 104.425C26.8211 104.885 26.7329 105.389 26.7329 105.938C26.7329 106.545 26.812 107.127 26.9702 107.685C27.1284 108.243 27.3665 108.718 27.6829 109.11H27.6821ZM34.1632 113.37C33.3996 113.37 32.836 113.095 32.4729 112.548C32.1091 112 31.9284 111.265 31.9284 110.344C31.9284 108.582 32.5054 106.188 33.6611 103.163C34.8151 100.138 36.1048 97.4107 37.5303 94.9824C38.9549 92.5541 39.9832 91.3395 40.6168 91.3395C40.8774 91.3395 41.0964 91.579 41.2729 92.0588C41.4494 92.5387 41.5385 93.0237 41.5385 93.5129C41.5385 94.4136 41.1896 95.7402 40.4911 97.4929C39.7925 99.2455 38.8758 101.023 37.7393 102.824C36.6027 104.626 35.3921 106.085 34.1082 107.201C33.8659 108.337 33.7444 109.326 33.7444 110.168C33.7444 111.676 34.154 112.43 34.9733 112.43C35.6627 112.43 36.3654 111.97 37.0823 111.05C37.7992 110.13 38.437 109.023 38.9957 107.731L39.4153 107.966C37.8134 111.568 36.0632 113.371 34.164 113.371L34.1632 113.37ZM34.3588 106.203C35.3829 105.125 36.3837 103.769 37.3621 102.134C38.3396 100.499 39.1356 98.9324 39.75 97.4347C40.3645 95.9361 40.6717 94.855 40.6717 94.1886C40.6717 93.8747 40.6068 93.7191 40.4761 93.7191C40.2155 93.7191 39.6801 94.3897 38.8699 95.7308C38.0598 97.072 37.2264 98.7126 36.3696 100.652C35.5128 102.59 34.8426 104.441 34.358 106.203H34.3588ZM43.8007 99.7989C43.466 99.7989 43.1912 99.7159 42.9764 99.5491C42.7624 99.3832 42.655 99.1428 42.655 98.8298C42.655 98.438 42.879 98.0848 43.3253 97.7726C43.7724 97.4595 44.2287 97.303 44.6941 97.303C45.3086 97.303 45.6158 97.6066 45.6158 98.2139C45.6158 98.586 45.4251 98.9435 45.0438 99.2857C44.6625 99.6287 44.2478 99.7997 43.8007 99.7997V99.7989ZM40.4486 113.253C39.7592 113.253 39.2288 113.023 38.8566 112.562C38.4836 112.102 38.2979 111.51 38.2979 110.785C38.2979 110.021 38.5078 108.964 38.9257 107.612C39.3445 106.261 39.8666 105.076 40.4902 104.058C41.1138 103.039 41.7242 102.53 42.3195 102.53C42.4877 102.53 42.6317 102.588 42.7524 102.706C42.8732 102.823 42.9348 102.981 42.9348 103.176C42.9348 103.45 42.6367 104.106 42.0406 105.144C41.4261 106.222 40.9373 107.186 40.5735 108.038C40.2105 108.89 40.029 109.697 40.029 110.461C40.029 111.146 40.1364 111.611 40.3503 111.857C40.5643 112.101 40.914 112.224 41.3978 112.224C42.8507 112.224 44.2845 110.725 45.6999 107.73L45.9514 108.023C45.4301 109.669 44.6625 110.951 43.6467 111.871C42.6317 112.792 41.566 113.252 40.4486 113.252V113.253ZM47.097 113.429C46.3335 113.429 45.7748 113.184 45.4202 112.695C45.0663 112.206 44.8898 111.559 44.8898 110.756C44.8898 109.953 45.048 109.111 45.3652 108.23C45.6816 107.349 46.0912 106.614 46.5941 106.027C47.097 105.439 47.5999 105.145 48.1029 105.145C48.2702 105.145 48.4659 105.194 48.689 105.292C48.465 105.488 48.1961 105.918 47.8789 106.584C47.5625 107.251 47.2877 107.96 47.0546 108.713C46.8223 109.468 46.7057 110.079 46.7057 110.55C46.7057 111.666 47.0413 112.225 47.7115 112.225C48.1029 112.225 48.5683 112.009 49.1078 111.578C49.6482 111.147 50.1786 110.579 50.6998 109.874C50.1786 109.423 49.7739 108.836 49.485 108.112C49.1969 107.388 49.052 106.633 49.052 105.85C49.052 104.832 49.2993 103.96 49.7922 103.236C50.286 102.511 50.9512 102.149 51.7897 102.149C52.4974 102.149 52.9953 102.349 53.2842 102.751C53.5723 103.152 53.7172 103.705 53.7172 104.41C53.7172 105.154 53.5448 105.992 53.2001 106.921C52.8554 107.851 52.4042 108.757 51.8455 109.638C52.1802 109.834 52.534 109.932 52.9071 109.932C53.4474 109.932 54.0061 109.761 54.5831 109.418C55.1601 109.076 55.5981 108.542 55.8962 107.818L56.2309 108.111C55.877 108.973 55.3741 109.609 54.7222 110.02C54.0702 110.432 53.4 110.637 52.7106 110.637C52.2077 110.637 51.7605 110.539 51.3692 110.343C50.699 111.263 49.9871 112.008 49.2327 112.576C48.4784 113.144 47.7665 113.428 47.0962 113.428L47.097 113.429ZM51.2035 109.111C51.6873 108.347 52.0786 107.569 52.3767 106.776C52.6739 105.982 52.8238 105.253 52.8238 104.587C52.8238 104.039 52.7447 103.627 52.5865 103.354C52.4283 103.08 52.2285 102.942 51.9862 102.942C51.7256 102.942 51.46 103.075 51.1902 103.339C50.9204 103.603 50.6965 103.965 50.5199 104.425C50.3426 104.886 50.2543 105.39 50.2543 105.939C50.2543 106.546 50.3334 107.128 50.4916 107.686C50.6498 108.244 50.888 108.719 51.2044 109.111H51.2035Z" fill="white"/>
</svg>
