<svg width="24" height="24" viewBox="0 0 24 24" fill="none" xmlns="http://www.w3.org/2000/svg">
<path d="M20.4853 3.51473C18.2188 1.24819 15.2053 0 12 0C8.79473 0 5.78123 1.24819 3.51473 3.51473C1.24819 5.78123 0 8.79473 0 12C0 15.2053 1.24819 18.2188 3.51473 20.4853C5.78123 22.7518 8.79473 24 12 24C15.2053 24 18.2188 22.7518 20.4853 20.4853C22.7518 18.2187 24 15.2053 24 12C24 8.79473 22.7518 5.78123 20.4853 3.51473ZM12 23.2421C5.80106 23.2421 0.757875 18.1989 0.757875 12C0.757875 5.80106 5.80106 0.757875 12 0.757875C18.1989 0.757875 23.2421 5.80106 23.2421 12C23.2421 18.1989 18.1989 23.2421 12 23.2421Z" fill="white"/>
<path d="M16.3052 4.54761H7.69474C5.95924 4.54761 4.54736 5.95953 4.54736 7.69498V16.3055C4.54736 18.041 5.95929 19.4529 7.69474 19.4529H16.3053C18.0407 19.4529 19.4526 18.041 19.4526 16.3055V7.69498C19.4526 5.95948 18.0407 4.54761 16.3052 4.54761ZM18.6947 16.3055C18.6947 17.623 17.6228 18.695 16.3052 18.695H7.69474C6.37718 18.695 5.30524 17.623 5.30524 16.3055V7.69498C5.30524 6.37742 6.37718 5.30548 7.69474 5.30548H16.3053C17.6228 5.30548 18.6948 6.37742 18.6948 7.69498V16.3055H18.6947Z" fill="white"/>
<path d="M15.9095 11.7762C15.7974 9.78242 14.175 8.17849 12.1802 8.08854C9.87828 7.98476 7.98326 9.88067 8.0884 12.1829C8.17957 14.1779 9.78481 15.7995 11.7788 15.9099C12.6202 15.9566 13.4082 15.7352 14.0664 15.3243C14.2715 15.1963 14.3049 14.9111 14.134 14.7403C14.1321 14.7384 14.1304 14.7366 14.1286 14.7349C14.004 14.6103 13.8109 14.5915 13.6612 14.6845C13.1694 14.9901 12.5881 15.1645 11.9663 15.158C10.2106 15.1395 8.79397 13.6653 8.84342 11.9102C8.89315 10.1439 10.4004 8.73579 12.2023 8.84871C13.7551 8.94603 15.0191 10.1842 15.147 11.7348C15.1991 12.3664 15.0632 12.9632 14.7903 13.4765C14.7121 13.6235 14.7362 13.8038 14.8539 13.9215C14.8558 13.9234 14.8578 13.9254 14.8597 13.9273C15.0366 14.1042 15.3357 14.0626 15.4539 13.8422C15.7812 13.2316 15.9516 12.5251 15.9095 11.7762Z" fill="white"/>
<path d="M16.0423 8.46332C16.6004 8.46332 17.0528 8.01089 17.0528 7.45279C17.0528 6.89469 16.6004 6.44226 16.0423 6.44226C15.4842 6.44226 15.0317 6.89469 15.0317 7.45279C15.0317 8.01089 15.4842 8.46332 16.0423 8.46332Z" fill="white"/>
</svg>
