<svg width="24" height="24" viewBox="0 0 24 24" fill="none" xmlns="http://www.w3.org/2000/svg">
<path d="M20.4853 3.51478C18.2188 1.24819 15.2053 0 12 0C8.79473 0 5.78123 1.24819 3.51473 3.51478C1.24819 5.78123 0 8.79473 0 12C0 15.2053 1.24819 18.2188 3.51473 20.4853C5.78123 22.7518 8.79473 24 12 24C15.2053 24 18.2188 22.7518 20.4853 20.4852C22.7518 18.2188 24 15.2053 24 12C24 8.79473 22.7518 5.78123 20.4853 3.51478ZM12 23.2421C5.80106 23.2421 0.757875 18.1989 0.757875 12C0.757875 5.80106 5.80106 0.757875 12 0.757875C18.1989 0.757875 23.2421 5.80106 23.2421 12C23.2421 18.1989 18.1989 23.2421 12 23.2421Z" fill="white"/>
<path d="M19.0889 16.9974L18.6786 14.8406C18.6468 14.6736 18.5134 14.5422 18.3418 14.5089L15.1153 13.8826C14.975 13.8555 14.8301 13.898 14.7289 13.9962L13.4041 15.2819C11.1712 14.3146 9.93741 13.1148 8.85057 10.855L10.1713 9.57329C10.2724 9.47516 10.3163 9.33443 10.2883 9.1983L9.64305 6.06695C9.60869 5.90037 9.47333 5.77092 9.30121 5.74011L7.07886 5.34203C7.02177 5.33167 6.96308 5.33297 6.90647 5.34545C6.3249 5.47365 5.79423 5.75808 5.37188 6.16802C4.6407 6.87767 4.36139 7.91451 4.56435 9.1663C4.65676 9.73619 4.79409 10.3266 4.97257 10.9212C5.03873 11.1414 5.27653 11.2676 5.50297 11.2037C5.72984 11.1396 5.86013 10.9092 5.79407 10.689C5.62569 10.1281 5.49635 9.57236 5.4096 9.03716C5.24868 8.04443 5.43953 7.27664 5.97698 6.75505C6.26515 6.47534 6.62225 6.27578 7.01409 6.17465L8.86103 6.50558L9.40461 9.14325L8.03573 10.4717C7.9104 10.5934 7.87535 10.7774 7.94759 10.9345C9.19199 13.639 10.6518 15.0547 13.3338 16.1575C13.4944 16.2235 13.68 16.1884 13.8032 16.0688L15.172 14.7404L17.8899 15.2679L18.2309 17.0603C18.1267 17.4405 17.921 17.7871 17.6329 18.0668C17.0953 18.5883 16.304 18.7736 15.2812 18.6173C13.2363 18.3051 10.3997 17.3416 8.57168 15.5745L8.54533 15.549C7.7044 14.7296 6.95481 13.5994 6.37778 12.2807C6.28537 12.0696 6.03428 11.9713 5.8168 12.0608C5.59933 12.1504 5.4979 12.3942 5.59026 12.6052C6.20966 14.0206 7.02193 15.2411 7.94081 16.1366L7.96728 16.1621C9.94099 18.07 12.9708 19.1051 15.1482 19.4375C15.4215 19.4792 15.6846 19.5 15.9369 19.5C16.8755 19.5 17.6613 19.2131 18.2377 18.6538C18.6601 18.2439 18.9532 17.7289 19.0852 17.1646C19.0982 17.1097 19.0994 17.0528 19.0889 16.9974Z" fill="white"/>
<path d="M13.1404 8.0426C12.9041 8.0426 12.7126 8.22844 12.7126 8.45778C12.7126 8.68711 12.9041 8.87295 13.1404 8.87295C14.1626 8.87295 14.9942 9.67994 14.9942 10.6719C14.9942 10.8982 15.1889 11.0871 15.422 11.0871C15.6551 11.0871 15.8498 10.8982 15.8498 10.6719C15.8498 9.22215 14.6343 8.0426 13.1404 8.0426Z" fill="white"/>
<path d="M13.1405 6.27124C12.9727 6.27124 12.8034 6.28025 12.6372 6.29801C12.4024 6.32318 12.2331 6.52833 12.259 6.75621C12.2849 6.98404 12.4961 7.14783 12.7311 7.12333C12.8662 7.10883 13.0039 7.10148 13.1404 7.10148C15.169 7.10148 16.8194 8.70314 16.8194 10.6718C16.8194 10.8044 16.8118 10.938 16.7969 11.0691C16.771 11.2971 16.9404 11.5022 17.1752 11.5274C17.4069 11.5517 17.6217 11.3856 17.6473 11.1603C17.6656 10.999 17.6749 10.8346 17.6749 10.6718C17.675 8.24535 15.6409 6.27124 13.1405 6.27124Z" fill="white"/>
<path d="M13.1404 4.5C12.978 4.5 12.8137 4.50606 12.6518 4.51792C12.4162 4.53526 12.2397 4.73462 12.2576 4.96328C12.2755 5.19194 12.4799 5.36286 12.7165 5.34583C12.8569 5.33547 12.9996 5.33029 13.1405 5.33029C16.1755 5.33029 18.6446 7.72657 18.6446 10.672C18.6446 11.0888 18.5951 11.5036 18.4974 11.905C18.4444 12.1225 18.5847 12.3468 18.8074 12.4025C19.0362 12.4598 19.2757 12.3189 19.3299 12.096C19.4429 11.632 19.5001 11.153 19.5001 10.672C19.5002 7.26878 16.6472 4.5 13.1404 4.5Z" fill="white"/>
</svg>
