<svg width="40" height="40" viewBox="0 0 40 40" fill="none" xmlns="http://www.w3.org/2000/svg">
<path d="M38.1616 14.7176H29.1909L22.8848 2.55848C22.6587 2.12254 22.2764 1.80075 21.8083 1.65231C21.3401 1.50387 20.8423 1.54668 20.4063 1.77278C20.2548 1.85137 20.1191 1.94856 20 2.05973C19.8808 1.94864 19.7452 1.85137 19.5936 1.77278C19.1577 1.54668 18.6598 1.50395 18.1916 1.65231C17.7235 1.80067 17.3412 2.12254 17.1152 2.55848L10.4681 15.375C10.242 15.811 10.1992 16.3089 10.3477 16.777C10.3983 16.9368 10.4706 17.0857 10.5594 17.2226H1.83844C1.47086 17.2226 1.17188 16.9236 1.17188 16.5561C1.17188 16.1886 1.47094 15.8895 1.83844 15.8895H8.51852C8.84211 15.8895 9.10445 15.6272 9.10445 15.3036C9.10445 14.98 8.84211 14.7176 8.51852 14.7176H1.83844C0.824766 14.7176 0 15.5424 0 16.5561C0 17.3968 0.567344 18.1069 1.33914 18.325L4.73281 36.4243C4.95117 37.5893 5.97 38.4348 7.15531 38.4348H32.8448C34.0301 38.4348 35.0488 37.5893 35.2673 36.4243L38.6609 18.325C39.4327 18.1069 40 17.3968 40 16.5561C40 15.5423 39.1752 14.7176 38.1616 14.7176ZM20.9459 2.81317C21.1039 2.73121 21.2845 2.71567 21.4541 2.7695C21.6238 2.82325 21.7625 2.93996 21.8445 3.09801L28.4915 15.9147C28.5734 16.0727 28.589 16.2533 28.5352 16.4229C28.4814 16.5927 28.3647 16.7313 28.2066 16.8133C28.0486 16.8953 27.868 16.9108 27.6983 16.857C27.5285 16.8033 27.3899 16.6865 27.308 16.5285L20.661 3.71176C20.4918 3.38551 20.6196 2.98239 20.9459 2.81317ZM28.7484 18.3946L28.1939 24.1116H20.5859V18.3946H28.7484ZM20 4.98254L26.2678 17.0679C26.2955 17.1213 26.3256 17.1729 26.3579 17.2226H13.6421C13.6744 17.1729 13.7045 17.1213 13.7322 17.0679L14.3434 15.8896H23.2617C23.5853 15.8896 23.8477 15.6273 23.8477 15.3036C23.8477 14.98 23.5853 14.7177 23.2617 14.7177H14.9511L20 4.98254ZM11.5084 15.9146L18.1555 3.09793C18.2375 2.93989 18.3761 2.82317 18.5459 2.76942C18.6123 2.74832 18.6803 2.73793 18.748 2.73793C18.8534 2.73793 18.958 2.76325 19.0541 2.81309C19.3804 2.98239 19.5082 3.38543 19.339 3.71168L12.6919 16.5283C12.6099 16.6864 12.4713 16.8031 12.3016 16.8568C12.132 16.9106 11.9514 16.8951 11.7933 16.8131C11.6352 16.7311 11.5185 16.5925 11.4648 16.4228C11.4109 16.2532 11.4265 16.0727 11.5084 15.9146ZM2.54445 18.3946H10.0743L10.6287 24.1116H3.61641L2.54445 18.3946ZM3.83617 25.2834H10.7424L11.2969 31.0004H4.90805L3.83617 25.2834ZM7.15523 37.263C6.53352 37.263 5.99914 36.8195 5.88461 36.2084L5.12781 32.1722H11.4105L11.9042 37.263H7.15523ZM19.4141 37.263H13.0815L12.5878 32.1722H19.4141V37.263ZM19.4141 31.0004H12.4741L11.9197 25.2834H19.4141V31.0004ZM19.4141 24.1116H11.8061L11.2516 18.3946H19.4141V24.1116ZM26.9185 37.263H20.5859V32.1722H27.4122L26.9185 37.263ZM27.5259 31.0004H20.5859V25.2835H28.0803L27.5259 31.0004ZM34.1154 36.2084C34.0009 36.8195 33.4664 37.263 32.8447 37.263H28.0958L28.5895 32.1722H34.8722L34.1154 36.2084ZM35.092 31.0004H28.7032L29.2577 25.2835H36.1639L35.092 31.0004ZM36.3836 24.1115H29.3713L29.9258 18.3945H37.4555L36.3836 24.1115ZM38.1616 17.2227H38.152C38.1516 17.2227 38.1513 17.2227 38.1509 17.2227H29.4406C29.5294 17.0858 29.6016 16.9368 29.6523 16.7771C29.7448 16.4854 29.763 16.1822 29.7089 15.8896H38.1616C38.5291 15.8896 38.8281 16.1886 38.8281 16.5561C38.8281 16.9236 38.5291 17.2227 38.1616 17.2227Z" fill="#688800"/>
</svg>
