<svg width="32" height="32" viewBox="0 0 32 32" fill="none" xmlns="http://www.w3.org/2000/svg">
<g clip-path="url(#clip0_1_3523)">
<path d="M20.7577 0.719375C19.223 0.242063 17.6222 0 16 0C11.7262 0 7.70831 1.66431 4.68625 4.68625C1.66431 7.70831 0 11.7262 0 16C0 19.2062 0.945 22.2997 2.73281 24.9461C4.47719 27.5281 6.91131 29.5324 9.77188 30.7424C9.83162 30.7676 9.89363 30.7796 9.95463 30.7796C10.1377 30.7796 10.3116 30.6719 10.3874 30.4928C10.4885 30.2539 10.3767 29.9783 10.1378 29.8773C7.445 28.7384 5.15356 26.8513 3.51113 24.4202C1.82869 21.9298 0.939313 19.0181 0.939313 16C0.939313 11.9772 2.50588 8.19506 5.3505 5.3505C8.19506 2.50594 11.9772 0.939375 16 0.939375C17.5276 0.939375 19.0344 1.16712 20.4788 1.61637C20.7263 1.69331 20.9897 1.55512 21.0667 1.30737C21.1437 1.05969 21.0054 0.796438 20.7577 0.719375Z" fill="#688800"/>
<path d="M29.4404 7.31621C27.8096 4.79727 25.5158 2.79177 22.8071 1.51652C22.5724 1.40608 22.2926 1.50664 22.1821 1.74139C22.0716 1.97608 22.1722 2.25589 22.4069 2.36639C24.9569 3.56683 27.1164 5.45502 28.6518 7.82664C30.2276 10.2606 31.0606 13.0871 31.0606 16.0003C31.0606 20.0231 29.494 23.8052 26.6494 26.6498C23.8049 29.4944 20.0228 31.061 16 31.061C14.6328 31.061 13.278 30.8778 11.9732 30.5168C11.7234 30.4478 11.4646 30.5941 11.3953 30.8442C11.3261 31.0941 11.4727 31.3529 11.7227 31.4221C13.1091 31.8058 14.5482 32.0003 16 32.0003C20.2737 32.0003 24.2917 30.3361 27.3137 27.3141C30.3357 24.292 32 20.2741 32 16.0003C32 12.9056 31.1149 9.90264 29.4404 7.31621Z" fill="#688800"/>
<path d="M20.5917 19.9278L16.6638 16L20.5915 12.0722C20.775 11.8889 20.775 11.5914 20.5915 11.408C20.4082 11.2247 20.1107 11.2247 19.9274 11.408L15.9996 15.3358L12.0718 11.4081C11.8884 11.2247 11.591 11.2247 11.4076 11.4081C11.2242 11.5915 11.2242 11.8889 11.4076 12.0723L15.3354 16L11.4076 19.9278C11.2242 20.1113 11.2242 20.4086 11.4076 20.592C11.4993 20.6837 11.6195 20.7296 11.7397 20.7296C11.86 20.7296 11.9801 20.6837 12.0718 20.592L15.9996 16.6642L19.9274 20.592C20.0191 20.6837 20.1393 20.7296 20.2595 20.7296C20.3798 20.7296 20.4999 20.6837 20.5917 20.592C20.7751 20.4086 20.7751 20.1112 20.5917 19.9278Z" fill="#688800"/>
</g>
<defs>
<clipPath id="clip0_1_3523">
<rect width="32" height="32" fill="white"/>
</clipPath>
</defs>
</svg>
