<svg width="33" height="32" viewBox="0 0 33 32" fill="none" xmlns="http://www.w3.org/2000/svg">
<path d="M27.7265 4.6863C24.7259 1.66425 20.7363 0 16.4927 0C12.274 0 8.24197 1.682 5.25887 4.6863C2.25821 7.7083 0.605713 11.7263 0.605713 16C0.605713 19.3316 1.61274 22.5249 3.51788 25.2348C5.38088 27.8846 7.95669 29.8798 10.9668 31.0046C11.169 31.0802 11.4027 31.0186 11.5419 30.8357C11.6108 30.7449 11.643 30.6311 11.643 30.5168V21.3895C11.643 21.1104 11.4184 20.8842 11.1414 20.8842H6.96059V17.179H11.1414C11.4184 17.179 11.643 16.9527 11.643 16.6737V16C11.643 11.6037 15.7848 7.74736 20.5063 7.74736H22.6804V11.4526H20.5063C19.0905 11.4526 17.8031 11.863 16.8813 12.6082C15.8613 13.4327 15.3221 14.6055 15.3221 16V16.6737C15.3221 16.9527 15.5468 17.1789 15.8238 17.1789H17.8017C18.0788 17.1789 18.3034 16.9527 18.3034 16.6737C18.3034 16.3946 18.0788 16.1684 17.8017 16.1684H16.3255V16C16.3255 13.3895 18.5777 12.4632 20.5063 12.4632H23.182C23.4591 12.4632 23.6837 12.2369 23.6837 11.9579V7.24211C23.6837 6.96305 23.459 6.73686 23.182 6.73686H20.5063C18.0538 6.73686 15.5681 7.71936 13.6863 9.43242C11.7216 11.2211 10.6395 13.5535 10.6395 16V16.1685H6.45878C6.18169 16.1685 5.9571 16.3947 5.9571 16.6737V21.3895C5.9571 21.6686 6.18175 21.8948 6.45878 21.8948H10.6395V29.7853C5.20929 27.4422 1.60908 21.9929 1.60908 16C1.60908 7.73474 8.28585 1.0105 16.4926 1.0105C24.6904 1.0105 31.3763 7.74386 31.3763 16C31.3763 24.2652 24.6996 30.9894 16.4927 30.9894C16.4378 30.9894 16.3821 30.9891 16.3254 30.9883V21.8947H23.182C23.4591 21.8947 23.6837 21.6685 23.6837 21.3895V16.6737C23.6837 16.3946 23.459 16.1684 23.182 16.1684H20.2456C19.9685 16.1684 19.7439 16.3947 19.7439 16.6737C19.7439 16.9527 19.9685 17.1789 20.2456 17.1789H22.6803V20.8841H15.8238C15.5467 20.8841 15.3221 21.1104 15.3221 21.3894V31.4792C15.3221 31.7495 15.5336 31.9724 15.8018 31.984C16.0503 31.9947 16.2764 31.9999 16.4928 31.9999C20.7363 31.9999 24.7259 30.3357 27.7266 27.3136C30.7097 24.3093 32.3798 20.2486 32.3798 15.9998C32.3798 11.7263 30.7272 7.7083 27.7265 4.6863Z" fill="#688800"/>
</svg>
