<svg width="33" height="32" viewBox="0 0 33 32" fill="none" xmlns="http://www.w3.org/2000/svg">
<g clip-path="url(#clip0_1_3007)">
<path d="M27.7256 4.68631C24.725 1.66425 20.7353 0 16.4918 0C12.2483 0 8.25864 1.66425 5.25797 4.68631C2.25724 7.70831 0.604736 11.7263 0.604736 16C0.604736 20.2737 2.25724 24.2917 5.25797 27.3137C8.25864 30.3358 12.2483 32 16.4918 32C20.7353 32 24.725 30.3358 27.7256 27.3137C30.7263 24.2916 32.3789 20.2737 32.3789 16C32.3789 11.7263 30.7264 7.70831 27.7256 4.68631ZM16.4918 30.9895C8.28489 30.9895 1.6081 24.2653 1.6081 16C1.6081 7.73475 8.28489 1.0105 16.4918 1.0105C24.6987 1.0105 31.3755 7.73475 31.3755 16C31.3755 24.2653 24.6987 30.9895 16.4918 30.9895Z" fill="#688800"/>
<path d="M22.1915 6.06348H10.7919C8.49421 6.06348 6.625 7.94604 6.625 10.26V21.7407C6.625 24.0546 8.49427 25.9372 10.7919 25.9372H22.1916C24.4891 25.9372 26.3584 24.0546 26.3584 21.7407V10.26C26.3583 7.94598 24.4891 6.06348 22.1915 6.06348ZM25.355 21.7406C25.355 23.4974 23.9358 24.9266 22.1915 24.9266H10.7919C9.04753 24.9266 7.62837 23.4974 7.62837 21.7406V10.26C7.62837 8.50323 9.04753 7.07398 10.7919 7.07398H22.1916C23.9359 7.07398 25.355 8.50323 25.355 10.26V21.7406H25.355Z" fill="#688800"/>
<path d="M21.6677 15.7015C21.5193 13.0432 19.3714 10.9047 16.7304 10.7847C13.6828 10.6463 11.1739 13.1742 11.3131 16.2439C11.4338 18.9039 13.5591 21.066 16.1989 21.2132C17.3129 21.2754 18.3562 20.9803 19.2276 20.4324C19.499 20.2617 19.5433 19.8815 19.317 19.6537C19.3146 19.6512 19.3122 19.6489 19.3099 19.6465C19.145 19.4804 18.8892 19.4553 18.6911 19.5793C18.04 19.9867 17.2704 20.2194 16.4471 20.2107C14.1227 20.186 12.2473 18.2204 12.3127 15.8803C12.3786 13.5252 14.374 11.6477 16.7597 11.7983C18.8154 11.928 20.4888 13.5789 20.6581 15.6464C20.7271 16.4885 20.5472 17.2842 20.1859 17.9687C20.0824 18.1647 20.1143 18.405 20.2702 18.562C20.2727 18.5645 20.2753 18.5672 20.2779 18.5697C20.512 18.8055 20.908 18.7501 21.0644 18.4562C21.4977 17.6421 21.7234 16.7001 21.6677 15.7015Z" fill="#688800"/>
<path d="M21.8435 11.2846C22.5824 11.2846 23.1813 10.6814 23.1813 9.93722C23.1813 9.19308 22.5824 8.58984 21.8435 8.58984C21.1046 8.58984 20.5056 9.19308 20.5056 9.93722C20.5056 10.6814 21.1046 11.2846 21.8435 11.2846Z" fill="#688800"/>
</g>
<defs>
<clipPath id="clip0_1_3007">
<rect width="31.7741" height="32" fill="white" transform="translate(0.604736)"/>
</clipPath>
</defs>
</svg>
