<svg width="33" height="32" viewBox="0 0 33 32" fill="none" xmlns="http://www.w3.org/2000/svg">
<g clip-path="url(#clip0_1_3023)">
<path d="M27.7213 4.68628C24.7211 1.66431 20.7322 0 16.4894 0C12.2463 0 8.25737 1.66431 5.25721 4.68628C2.25705 7.70825 0.604736 11.7263 0.604736 16C0.604736 18.9402 1.4035 21.8149 2.91449 24.3132C3.0483 24.5344 3.33484 24.6045 3.55423 24.4697C3.77386 24.335 3.84319 24.0466 3.70962 23.8257C2.28735 21.4744 1.53562 18.7681 1.53562 16C1.53562 11.9766 3.09097 8.19409 5.91537 5.34912C8.73978 2.50415 12.4951 0.9375 16.4894 0.9375C20.4834 0.9375 24.2387 2.50415 27.0631 5.34912C29.8875 8.19409 31.4429 11.9768 31.4429 16C31.4429 20.0232 29.8875 23.8059 27.0631 26.6509C24.2387 29.4958 20.4834 31.0625 16.4894 31.0625C11.9038 31.0625 7.63532 28.9866 4.77819 25.3672C4.6182 25.1646 4.32511 25.1309 4.12415 25.292C3.92294 25.4531 3.88949 25.748 4.04949 25.9507C7.08431 29.7952 11.6185 32 16.4894 32C20.7322 32 24.7211 30.3357 27.7213 27.3137C30.7214 24.2917 32.3738 20.2737 32.3738 16C32.3738 11.7263 30.7214 7.70825 27.7213 4.68628V4.68628Z" fill="#688800"/>
<path d="M13.9389 13.2884L15.5359 12.0772C15.7866 11.8871 15.9175 11.575 15.878 11.263C15.8237 10.8348 15.7992 10.3985 15.8053 9.96616C15.8181 9.0394 15.1209 8.21323 14.2182 8.0853L12.8267 7.88779C11.8847 7.75425 11.0127 8.00815 10.3715 8.60312C9.72932 9.19907 9.40618 10.0548 9.46169 11.0128C9.54557 12.4662 9.83187 13.9 10.3123 15.275C11.3855 18.3463 13.345 20.9674 15.9788 22.8551C17.1577 23.7 18.4469 24.3736 19.8105 24.8565C20.1756 24.9859 20.5419 25.0501 20.8982 25.0501C21.4187 25.0501 21.9178 24.9129 22.3605 24.6419C23.1057 24.1856 23.5893 23.4117 23.7219 22.4627L23.9139 21.0902C24.0414 20.18 23.4349 19.2445 22.5622 19.005C22.1527 18.8927 21.7479 18.7503 21.3586 18.5819C21.0626 18.454 20.7186 18.4962 20.4609 18.6917L18.8765 19.8934C18.7373 19.9989 18.548 20.0045 18.4054 19.9073C17.5061 19.2953 16.6945 18.5594 15.9927 17.7203C15.8271 17.5223 15.5333 17.4969 15.3369 17.6637C15.1403 17.8304 15.1151 18.1261 15.2807 18.3241C16.0378 19.2296 16.9136 20.0235 17.8842 20.6842C18.356 21.0055 18.98 20.9886 19.4364 20.6422L21.0078 19.4505C21.4318 19.6329 21.8723 19.7872 22.3173 19.9095C22.7389 20.0252 23.0543 20.516 22.9922 20.9596L22.8002 22.3319C22.7071 22.9974 22.3792 23.5333 21.8769 23.8409C21.3738 24.1488 20.7496 24.1954 20.1191 23.972C18.8379 23.5182 17.6266 22.8853 16.5185 22.0914C14.0419 20.3163 12.1996 17.8517 11.1904 14.9637C10.739 13.6715 10.4699 12.3238 10.3909 10.9581C10.3521 10.286 10.5691 9.69443 11.002 9.29258C11.4345 8.89145 12.0359 8.72226 12.6968 8.81601L14.0882 9.01352C14.5207 9.0748 14.8807 9.50522 14.8744 9.95298C14.8681 10.4178 14.8935 10.8868 14.9505 11.3478L13.3792 12.5394C12.9227 12.8856 12.7341 13.4847 12.9101 14.0304C13.1816 14.8709 13.5418 15.6869 13.9806 16.4552C14.1088 16.6795 14.3934 16.7567 14.6162 16.6278C14.839 16.4986 14.9156 16.212 14.7876 15.9876C14.3806 15.2755 14.0468 14.5196 13.7956 13.7406C13.7423 13.5755 13.8 13.3939 13.9389 13.2884V13.2884Z" fill="#688800"/>
</g>
<defs>
<clipPath id="clip0_1_3023">
<rect width="31.7741" height="32" fill="white" transform="translate(0.604736)"/>
</clipPath>
</defs>
</svg>
