<svg width="33" height="32" viewBox="0 0 33 32" fill="none" xmlns="http://www.w3.org/2000/svg">
<g clip-path="url(#clip0_1_2989)">
<path d="M27.7256 4.68631C24.725 1.66425 20.7353 0 16.4918 0C12.2483 0 8.25864 1.66425 5.25797 4.68631C2.25724 7.70831 0.604736 11.7263 0.604736 16C0.604736 20.2737 2.25724 24.2917 5.25797 27.3137C8.25864 30.3358 12.2483 32 16.4918 32C20.7353 32 24.725 30.3358 27.7256 27.3137C30.7263 24.2916 32.3789 20.2737 32.3789 16C32.3789 11.7263 30.7264 7.70831 27.7256 4.68631ZM16.4918 30.9895C8.28489 30.9895 1.6081 24.2653 1.6081 16C1.6081 7.73475 8.28489 1.0105 16.4918 1.0105C24.6987 1.0105 31.3755 7.73475 31.3755 16C31.3755 24.2653 24.6987 30.9895 16.4918 30.9895Z" fill="#688800"/>
<path d="M25.4899 6.16463C25.3358 6.04775 25.1289 6.03025 24.9576 6.1195L5.55862 16.2248C5.39094 16.3121 5.28612 16.4869 5.28736 16.677C5.28861 16.8671 5.39578 17.0404 5.56471 17.1255L10.6389 19.6805V24.7434C10.6389 24.8759 10.6836 25.007 10.7742 25.1032C10.8743 25.2096 11.0075 25.263 11.1406 25.263C11.2245 25.263 11.3084 25.2419 11.3843 25.1994L17.1896 21.9513L21.6328 23.8691C21.7273 23.9099 21.8319 23.9268 21.9331 23.9078C22.1413 23.8686 22.2961 23.7079 22.3355 23.5095L23.4597 17.8484C23.5218 17.5358 23.2844 17.2441 22.9677 17.2441C22.7286 17.2439 22.5227 17.4139 22.4758 17.6501L21.4728 22.7006L17.3586 20.9248C17.2161 20.8633 17.0531 20.8717 16.9173 20.9475L11.6423 23.8989V19.3682C11.6423 19.1768 11.535 19.0019 11.365 18.9163L6.89581 16.6658L24.4913 7.49994L22.9644 15.1889C22.9023 15.5016 23.1398 15.7933 23.4564 15.7933C23.6955 15.7933 23.9014 15.6232 23.9484 15.3871L25.68 6.66725C25.7178 6.47688 25.6439 6.28144 25.4899 6.16463Z" fill="#688800"/>
<path d="M22.2369 10.2971C22.0792 10.0961 21.797 10.0456 21.5803 10.18L12.8842 15.5695C12.7359 15.6615 12.6455 15.8244 12.6455 15.9998V21.3893C12.6454 21.6237 12.8054 21.8272 13.0318 21.8811C13.0704 21.8903 13.109 21.8947 13.1473 21.8947C13.3339 21.8947 13.5095 21.7893 13.5958 21.6153L15.5662 17.6466L22.198 10.9676C22.3779 10.7864 22.3946 10.4982 22.2369 10.2971ZM14.7991 16.9899C14.7611 17.0283 14.7293 17.0726 14.7052 17.1212L13.6489 19.2489V16.2821L18.4669 13.2961L14.7991 16.9899Z" fill="#688800"/>
</g>
<defs>
<clipPath id="clip0_1_2989">
<rect width="31.7741" height="32" fill="white" transform="translate(0.604736)"/>
</clipPath>
</defs>
</svg>
