<svg width="33" height="32" viewBox="0 0 33 32" fill="none" xmlns="http://www.w3.org/2000/svg">
<g clip-path="url(#clip0_1_2970)">
<path d="M27.7256 4.68638C24.725 1.66425 20.7353 0 16.4918 0C12.2483 0 8.25864 1.66425 5.25797 4.68638C2.25724 7.70831 0.604736 11.7263 0.604736 16C0.604736 20.2737 2.25724 24.2917 5.25797 27.3137C8.25864 30.3358 12.2483 32 16.4918 32C20.7353 32 24.725 30.3358 27.7256 27.3136C30.7264 24.2917 32.3789 20.2737 32.3789 16C32.3789 11.7263 30.7264 7.70831 27.7256 4.68638ZM16.4918 30.9895C8.28489 30.9895 1.6081 24.2653 1.6081 16C1.6081 7.73475 8.28489 1.0105 16.4918 1.0105C24.6987 1.0105 31.3755 7.73475 31.3755 16C31.3755 24.2653 24.6987 30.9895 16.4918 30.9895Z" fill="#688800"/>
<path d="M25.877 22.6631L25.3338 19.7873C25.2918 19.5646 25.1151 19.3894 24.8879 19.345L20.6163 18.51C20.4306 18.4738 20.2387 18.5305 20.1047 18.6614L18.3508 20.3757C15.3947 19.086 13.7612 17.4862 12.3223 14.4732L14.0709 12.7642C14.2047 12.6334 14.2628 12.4457 14.2258 12.2642L13.3715 8.0891C13.326 7.867 13.1468 7.6944 12.9189 7.65332L9.97671 7.12254C9.90113 7.10873 9.82343 7.11046 9.74848 7.1271C8.97853 7.29804 8.27596 7.67728 7.7168 8.22387C6.74877 9.17006 6.37898 10.5525 6.64769 12.2216C6.77004 12.9814 6.95186 13.7687 7.18814 14.5615C7.27573 14.8551 7.59057 15.0233 7.89035 14.9382C8.19071 14.8526 8.3632 14.5454 8.27575 14.2518C8.05282 13.504 7.88159 12.763 7.76674 12.0494C7.55369 10.7257 7.80636 9.70202 8.5179 9.00658C8.89942 8.63362 9.37219 8.36754 9.89096 8.23271L12.3362 8.67394L13.0558 12.1908L11.2435 13.9621C11.0776 14.1243 11.0312 14.3697 11.1268 14.5791C12.7743 18.1852 14.707 20.0727 18.2577 21.5432C18.4704 21.6312 18.7161 21.5844 18.8792 21.425L20.6914 19.6537L24.2896 20.357L24.7412 22.7469C24.6032 23.2539 24.3309 23.716 23.9494 24.0889C23.2377 24.7842 22.1901 25.0313 20.8359 24.8229C18.1287 24.4066 14.3733 23.122 11.9531 20.7658L11.9182 20.7318C10.8049 19.6393 9.81248 18.1324 9.04853 16.3741C8.92619 16.0926 8.59377 15.9615 8.30585 16.0809C8.01793 16.2004 7.88364 16.5254 8.00592 16.8068C8.82595 18.6939 9.90134 20.3214 11.1179 21.5153L11.1529 21.5494C13.7659 24.0932 17.7772 25.4733 20.6598 25.9166C21.0217 25.9721 21.37 25.9998 21.7041 25.9998C22.9467 25.9998 23.987 25.6173 24.7501 24.8716C25.3093 24.325 25.6974 23.6383 25.8722 22.8859C25.8894 22.8128 25.891 22.7369 25.877 22.6631Z" fill="#688800"/>
<path d="M18.0017 10.7236C17.6888 10.7236 17.4353 10.9714 17.4353 11.2772C17.4353 11.583 17.6888 11.8308 18.0017 11.8308C19.355 11.8308 20.4558 12.9068 20.4558 14.2294C20.4558 14.5311 20.7136 14.783 21.0222 14.783C21.3308 14.783 21.5886 14.5311 21.5886 14.2294C21.5886 12.2964 19.9795 10.7236 18.0017 10.7236Z" fill="#688800"/>
<path d="M18.0018 8.36182C17.7797 8.36182 17.5555 8.37383 17.3356 8.39751C17.0247 8.43106 16.8005 8.7046 16.8348 9.00845C16.8691 9.31222 17.1487 9.5306 17.4598 9.49794C17.6388 9.47861 17.821 9.4688 18.0018 9.4688C20.6874 9.4688 22.8724 11.6044 22.8724 14.2293C22.8724 14.406 22.8624 14.5842 22.8426 14.759C22.8084 15.0629 23.0326 15.3365 23.3435 15.37C23.6503 15.4024 23.9346 15.1809 23.9685 14.8805C23.9928 14.6655 24.0051 14.4463 24.0051 14.2293C24.0052 10.994 21.3121 8.36182 18.0018 8.36182Z" fill="#688800"/>
<path d="M18.0017 6C17.7867 6 17.5691 6.00808 17.3548 6.02389C17.043 6.04702 16.8092 6.31282 16.833 6.6177C16.8567 6.92258 17.1273 7.15048 17.4405 7.12777C17.6264 7.11396 17.8152 7.10706 18.0018 7.10706C22.0199 7.10706 25.2889 10.3021 25.2889 14.2293C25.2889 14.785 25.2233 15.3381 25.0939 15.8734C25.0238 16.1633 25.2095 16.4624 25.5043 16.5367C25.8073 16.613 26.1243 16.4253 26.1962 16.128C26.3457 15.5094 26.4215 14.8707 26.4215 14.2293C26.4216 9.69171 22.6444 6 18.0017 6Z" fill="#688800"/>
</g>
<defs>
<clipPath id="clip0_1_2970">
<rect width="31.7741" height="32" fill="white" transform="translate(0.604736)"/>
</clipPath>
</defs>
</svg>
