<svg width="40" height="40" viewBox="0 0 40 40" fill="none" xmlns="http://www.w3.org/2000/svg">
<g clip-path="url(#clip0_1_3142)">
<path d="M38.1659 14.2024H34.2309L32.2418 6.40177C31.9919 5.42161 30.991 4.82778 30.0111 5.07755L25.476 6.23395C25.1702 6.31192 24.9854 6.62317 25.0634 6.92903C25.1414 7.23489 25.4526 7.4195 25.7585 7.34169L30.2935 6.18528C30.6631 6.0913 31.0399 6.31497 31.1342 6.68427L31.3545 7.5484L1.38538 15.1903L1.16507 14.3262C1.11944 14.1473 1.14624 13.9613 1.24046 13.8025C1.33475 13.6438 1.48522 13.5312 1.66413 13.4856L22.2781 8.22911C22.5839 8.15114 22.7687 7.83989 22.6907 7.53403C22.6127 7.22817 22.3017 7.04356 21.9957 7.12137L1.38163 12.3778C0.401473 12.6278 -0.192588 13.6285 0.0573331 14.6085L4.28451 31.186C4.49584 32.0147 5.24373 32.5674 6.06224 32.5673C6.21177 32.5673 6.36381 32.5488 6.51521 32.5102L6.78584 32.4412V33.1446C6.78584 34.1561 7.60872 34.979 8.62021 34.979H38.1659C39.1773 34.979 40.0002 34.1561 40.0002 33.1446V16.0367C40.0002 15.0253 39.1773 14.2024 38.1659 14.2024ZM6.78591 31.2616L6.23287 31.4026C5.86357 31.4968 5.48646 31.2729 5.39224 30.9036L2.80475 20.7564L6.78591 19.7413V31.2616ZM6.78591 16.0367V18.5616L2.52233 19.6488L1.66788 16.2978L7.19029 14.8896C6.93763 15.2041 6.78591 15.6029 6.78591 16.0367ZM33.0513 14.2023H28.5077L32.7738 13.1145L33.0513 14.2023ZM31.637 8.6559L32.4914 12.0068L23.8815 14.2024H9.88583L31.637 8.6559ZM38.1659 33.8359H8.62029C8.23911 33.8359 7.92896 33.5258 7.92896 33.1446V31.7057V16.0367C7.92896 15.6556 8.23904 15.3455 8.62029 15.3455H38.1659C38.547 15.3455 38.8571 15.6556 38.8571 16.0367V33.1446C38.8571 33.5258 38.547 33.8359 38.1659 33.8359Z" fill="#688800"/>
<path d="M22.7609 28.2729H10.3072C9.99153 28.2729 9.7356 28.5287 9.7356 28.8443C9.7356 29.1598 9.99153 29.4156 10.3072 29.4156H22.7609C23.0765 29.4156 23.3324 29.1598 23.3324 28.8443C23.3324 28.5288 23.0766 28.2729 22.7609 28.2729Z" fill="#688800"/>
<path d="M32.2857 18.2227C31.4647 18.2227 30.7051 18.4877 30.0858 18.9355C29.4478 18.4733 28.6824 18.2227 27.8837 18.2227C25.8088 18.2227 24.1208 19.9106 24.1208 21.9855C24.121 24.0602 25.809 25.7482 27.8837 25.7482C28.6825 25.7482 29.4478 25.4976 30.0858 25.0353C30.7051 25.4832 31.4648 25.7482 32.2857 25.7482C34.3604 25.7482 36.0484 24.0602 36.0484 21.9855C36.0484 19.9106 34.3604 18.2227 32.2857 18.2227ZM28.5275 22.1638C28.5282 22.1785 28.5292 22.1931 28.5301 22.2078C28.5328 22.2557 28.5365 22.3034 28.541 22.351C28.5421 22.3621 28.5431 22.3732 28.5443 22.3843C28.614 23.0527 28.8578 23.6806 29.2555 24.2169C28.8462 24.4696 28.3739 24.605 27.8837 24.605C26.4392 24.605 25.2641 23.4298 25.2641 21.9854C25.2641 20.541 26.4393 19.3658 27.8837 19.3658C28.3739 19.3658 28.8462 19.5012 29.2555 19.7538C28.8579 20.2902 28.614 20.918 28.5443 21.5865C28.5431 21.5976 28.5421 21.6086 28.541 21.6197C28.5365 21.6673 28.5329 21.715 28.5301 21.7629C28.5292 21.7776 28.5282 21.7921 28.5275 21.8068C28.5247 21.8661 28.5229 21.9255 28.5229 21.9853C28.5229 22.0451 28.5247 22.1045 28.5275 22.1638ZM32.2858 24.6051C31.5706 24.6051 30.9217 24.3167 30.4485 23.8505C30.4387 23.8408 30.4291 23.8312 30.4195 23.8214C30.3977 23.7992 30.3761 23.7768 30.3551 23.7538C30.3493 23.7475 30.3436 23.7411 30.3378 23.7347C30.3131 23.7072 30.2887 23.6794 30.2652 23.6508C30.2651 23.6507 30.265 23.6505 30.2648 23.6504C29.891 23.1974 29.6662 22.6171 29.6662 21.9853C29.6661 21.3536 29.891 20.7733 30.2649 20.3202C30.265 20.3202 30.2651 20.3201 30.2651 20.3199C30.2887 20.2913 30.3132 20.2635 30.3379 20.2359C30.3436 20.2296 30.3493 20.2233 30.3551 20.217C30.3762 20.194 30.3978 20.1715 30.4197 20.1493C30.4292 20.1396 30.4387 20.13 30.4484 20.1205C30.9216 19.6542 31.5706 19.3658 32.2858 19.3658C33.7303 19.3658 34.9054 20.5409 34.9054 21.9855C34.9054 23.4299 33.7303 24.6051 32.2858 24.6051Z" fill="#688800"/>
<path d="M14.3804 18.5942H11.8737C10.6948 18.5942 9.73584 19.5532 9.73584 20.7321V23.2388C9.73576 24.4176 10.6948 25.3766 11.8737 25.3766H14.3804C15.5591 25.3766 16.5182 24.4176 16.5182 23.2388V20.7321C16.5182 19.5533 15.5592 18.5942 14.3804 18.5942ZM15.375 22.2924H14.1557C13.8401 22.2924 13.5841 22.5483 13.5841 22.864C13.5841 23.1797 13.84 23.4356 14.1557 23.4356H15.3553C15.2636 23.8901 14.8614 24.2335 14.3803 24.2335H11.8736C11.3924 24.2335 10.9901 23.8902 10.8986 23.4356H12.0982C12.4138 23.4356 12.6697 23.1797 12.6697 22.864C12.6697 22.5483 12.4139 22.2924 12.0982 22.2924H10.8789V21.7971H12.0982C12.4138 21.7971 12.6697 21.5413 12.6697 21.2256C12.6697 20.9099 12.4139 20.654 12.0982 20.654H10.8828C10.9228 20.142 11.3514 19.7373 11.8736 19.7373H14.3803C14.9025 19.7373 15.331 20.142 15.3711 20.654H14.1557C13.8401 20.654 13.5841 20.9099 13.5841 21.2256C13.5841 21.5412 13.84 21.7971 14.1557 21.7971H15.375V22.2924V22.2924Z" fill="#688800"/>
<path d="M36.1808 30.7881H16.2798C15.9642 30.7881 15.7083 31.0438 15.7083 31.3594C15.7083 31.675 15.9641 31.9307 16.2798 31.9307H36.1808C36.4964 31.9307 36.7524 31.675 36.7524 31.3594C36.7524 31.0438 36.4965 30.7881 36.1808 30.7881Z" fill="#688800"/>
<path d="M12.6365 30.7881H10.3074C9.99178 30.7881 9.73584 31.0438 9.73584 31.3594C9.73584 31.675 9.9917 31.9307 10.3074 31.9307H12.6365C12.9522 31.9307 13.2081 31.675 13.2081 31.3594C13.2081 31.0438 12.9522 30.7881 12.6365 30.7881Z" fill="#688800"/>
</g>
<defs>
<clipPath id="clip0_1_3142">
<rect width="40" height="40" fill="white"/>
</clipPath>
</defs>
</svg>
