<svg width="40" height="40" viewBox="0 0 40 40" fill="none" xmlns="http://www.w3.org/2000/svg">
<g clip-path="url(#clip0_1_3162)">
<path d="M26.8181 8.68449H25.6885C25.8877 8.3373 26.0024 7.93559 26.0024 7.50738V3.91277C26.0024 2.60441 24.938 1.54004 23.6297 1.54004H2.37273C1.06438 1.54051 0 2.60488 0 3.91316V7.50777C0 8.81613 1.06438 9.88051 2.37273 9.88051H3.50219C3.30297 10.2277 3.18828 10.6294 3.18828 11.0576V14.6522C3.18828 15.0805 3.30289 15.4821 3.50219 15.8293H2.37273C1.06438 15.8293 0 16.8936 0 18.2019V21.7965C0 22.8311 0.665859 23.7126 1.59125 24.0364C1.34156 24.412 1.19562 24.8623 1.19562 25.3463V28.9409C1.19562 29.4249 1.34156 29.8752 1.59125 30.2508C0.665859 30.5746 0 31.4561 0 32.4907V36.0853C0 37.3936 1.06438 38.4579 2.37273 38.4579H20.6008C20.931 38.4579 21.1986 38.1903 21.1986 37.8601C21.1986 37.53 20.9309 37.2623 20.6008 37.2623H2.37273C1.72359 37.2623 1.19562 36.7343 1.19562 36.0853V32.4907C1.19562 31.8416 1.72367 31.3136 2.37273 31.3136H3.56836H6.74148H13.9324C14.2627 31.3136 14.5302 31.0459 14.5302 30.7157C14.5302 30.3856 14.2627 30.1179 13.9324 30.1179H6.74141H3.56836C2.91922 30.1179 2.39125 29.5899 2.39125 28.9408V25.3462C2.39125 24.6971 2.9193 24.1691 3.56836 24.1691H12.8431C13.1734 24.1691 13.4409 23.9014 13.4409 23.5713C13.4409 23.2411 13.1734 22.9735 12.8431 22.9735H2.37273C1.72359 22.9735 1.19562 22.4454 1.19562 21.7964V18.2018C1.19562 17.5527 1.72367 17.0246 2.37273 17.0246H5.56102H10.3459H16.2305C16.5608 17.0246 16.8284 16.757 16.8284 16.4268C16.8284 16.0967 16.5608 15.829 16.2305 15.829H10.3459H5.56102C4.91187 15.829 4.38391 15.301 4.38391 14.6519V11.0573C4.38391 10.4082 4.91195 9.88019 5.56102 9.88019H23.6298H26.8181C27.4673 9.88019 27.9952 10.4082 27.9952 11.0573V11.5032C27.9952 11.8333 28.2628 12.101 28.593 12.101C28.9233 12.101 29.1909 11.8333 29.1909 11.5032V11.0573C29.1909 9.74887 28.1265 8.68449 26.8181 8.68449ZM24.8069 7.50777C24.8069 8.15684 24.2788 8.68488 23.6298 8.68488H5.56102H2.37273C1.72359 8.6848 1.19562 8.15676 1.19562 7.50777V3.91316C1.19562 3.2641 1.72367 2.73605 2.37273 2.73605H23.6298C24.2789 2.73605 24.8069 3.2641 24.8069 3.91316V7.50777V7.50777Z" fill="#688800"/>
<path d="M34.0883 14.5578C33.8119 14.3776 33.4414 14.4556 33.2612 14.7322C33.0808 15.0088 33.159 15.3792 33.4355 15.5594C36.7974 17.7503 38.8044 21.4506 38.8044 25.4577C38.8044 31.9673 33.5084 37.2633 26.9988 37.2633C20.4891 37.2633 15.1931 31.9673 15.1931 25.4577C15.1931 18.9481 20.4891 13.6521 26.9988 13.6521C28.708 13.6521 30.3564 14.0091 31.8981 14.7133C32.1987 14.8506 32.5531 14.7182 32.6902 14.4179C32.8274 14.1176 32.6951 13.763 32.3948 13.6258C30.6961 12.8499 28.8806 12.4565 26.9988 12.4565C19.83 12.4565 13.9976 18.2889 13.9976 25.4577C13.9976 32.6265 19.83 38.4589 26.9988 38.4589C34.1676 38.4589 40.0001 32.6266 40.0001 25.4578C40.0001 21.0449 37.7901 16.9701 34.0883 14.5578Z" fill="#688800"/>
<path d="M33.6232 18.8333C31.8536 17.0638 29.5011 16.0894 26.9987 16.0894C24.4964 16.0894 22.1437 17.0639 20.3743 18.8333C18.0089 21.1987 17.0819 24.6762 17.9551 27.909C18.0412 28.2278 18.3692 28.4164 18.6881 28.3303C19.0068 28.2442 19.1953 27.9161 19.1093 27.5973C18.3474 24.7765 19.156 21.7423 21.2197 19.6787C22.7633 18.1351 24.8157 17.2849 26.9988 17.2849C29.1818 17.2849 31.2343 18.1351 32.7778 19.6787C35.9645 22.8654 35.9645 28.0503 32.7778 31.2369C29.5913 34.4235 24.4064 34.4235 21.2197 31.2369C20.6469 30.6641 20.165 30.0152 19.7871 29.3083C19.6315 29.0171 19.2695 28.9071 18.9782 29.0629C18.687 29.2184 18.5771 29.5807 18.7328 29.8719C19.1661 30.6826 19.7184 31.4263 20.3743 32.0822C22.2007 33.9087 24.5998 34.8219 26.9989 34.8219C29.3979 34.8219 31.7969 33.9087 33.6233 32.0822C37.2759 28.4296 37.2759 22.4861 33.6232 18.8333Z" fill="#688800"/>
<path d="M27.5972 24.9077V21.6157C28.4687 21.8187 29.1065 22.4535 29.1065 23.2037C29.1065 23.5339 29.3741 23.8015 29.7043 23.8015C30.0346 23.8015 30.3022 23.5339 30.3022 23.2037C30.3022 21.8075 29.1339 20.6432 27.5972 20.3996V20.048C27.5972 19.7179 27.3297 19.4502 26.9994 19.4502C26.6692 19.4502 26.4016 19.7179 26.4016 20.048V20.3996C24.865 20.6433 23.6966 21.8075 23.6966 23.2037C23.6966 24.5999 24.865 25.7642 26.4016 26.0078V29.2999C25.53 29.0968 24.8922 28.462 24.8922 27.7118C24.8922 27.3817 24.6246 27.114 24.2943 27.114C23.9641 27.114 23.6965 27.3817 23.6965 27.7118C23.6965 29.1081 24.8649 30.2723 26.4015 30.516V30.8675C26.4015 31.1977 26.6691 31.4653 26.9993 31.4653C27.3296 31.4653 27.5972 31.1977 27.5972 30.8675V30.516C29.1338 30.2723 30.3021 29.108 30.3021 27.7118C30.3021 26.3157 29.1338 25.1514 27.5972 24.9077ZM26.4016 24.7917C25.53 24.5887 24.8922 23.9539 24.8922 23.2037C24.8922 22.4535 25.53 21.8188 26.4016 21.6157V24.7917ZM27.5971 29.2999V26.1239C28.4686 26.3269 29.1065 26.9618 29.1065 27.7119C29.1065 28.4619 28.4686 29.0967 27.5971 29.2999Z" fill="#688800"/>
</g>
<defs>
<clipPath id="clip0_1_3162">
<rect width="40" height="40" fill="white"/>
</clipPath>
</defs>
</svg>
