<svg width="40" height="30" viewBox="0 0 40 30" fill="none" xmlns="http://www.w3.org/2000/svg">
<path d="M32.3828 9.72869H29.8645L30.6232 1.01701C30.6247 1.00123 30.6249 0.985686 30.625 0.970139C30.625 0.968811 30.6251 0.967561 30.6251 0.966233C30.6251 0.965998 30.6251 0.965843 30.6251 0.965608C30.6251 0.728498 30.4821 0.519513 30.2718 0.428653C30.27 0.427872 30.2683 0.426934 30.2665 0.426153C30.2535 0.420684 30.24 0.415996 30.2264 0.411465C30.2213 0.409825 30.2164 0.407793 30.2114 0.406231C30.2003 0.402871 30.1889 0.400215 30.1775 0.397481C30.1696 0.395606 30.1619 0.39334 30.1539 0.391778C30.1439 0.389825 30.1336 0.388575 30.1235 0.38709C30.1139 0.385684 30.1046 0.384043 30.095 0.383184C30.0933 0.383028 30.0918 0.382715 30.0902 0.382559C30.0799 0.381621 30.0697 0.381777 30.0595 0.381387C30.0526 0.381152 30.0459 0.380371 30.039 0.380371H30.0317C30.0311 0.380371 30.0304 0.380371 30.0299 0.380371H18.0477C17.7243 0.380371 17.4618 0.642872 17.4618 0.966311C17.4618 1.28897 17.7243 1.55225 18.0477 1.55225H29.4003L28.2343 14.941C28.2341 14.942 28.2341 14.943 28.2339 14.944L27.9397 18.3222H7.57956L7.92011 14.8068H11.7968C12.1204 14.8068 12.3827 14.5444 12.3827 14.2208C12.3827 13.8972 12.1204 13.6349 11.7968 13.6349H8.0337L8.75277 6.21336H14.9227C15.2464 6.21336 15.5087 5.95102 15.5087 5.62742C15.5087 5.30383 15.2464 5.04148 14.9227 5.04148H8.86636L9.20449 1.55225H15.704C16.0266 1.55225 16.2899 1.28897 16.2899 0.966311C16.2899 0.642872 16.0266 0.380371 15.704 0.380371H8.67269C8.67238 0.380371 8.67214 0.380449 8.67183 0.380449C8.3966 0.380371 8.15784 0.574122 8.10011 0.842717C8.09972 0.84467 8.09902 0.846545 8.09863 0.848498C8.09566 0.863108 8.0937 0.87803 8.09175 0.89303C8.0912 0.897795 8.09019 0.902327 8.08972 0.907092C8.08964 0.90803 8.08941 0.908889 8.08933 0.909826L7.68901 5.04148H0.58594C0.262267 5.04148 0 5.30383 0 5.62742C0 5.95102 0.262267 6.21336 0.58594 6.21336H7.57542L6.85636 13.6349H4.7658C4.44213 13.6349 4.17986 13.8972 4.17986 14.2208C4.17986 14.5444 4.44213 14.8068 4.7658 14.8068H6.74284L6.35127 18.8475C6.3512 18.8481 6.3512 18.8487 6.35112 18.8493L5.74573 25.0977C5.74565 25.0984 5.74557 25.0991 5.74549 25.0998L5.74526 25.102C5.74448 25.1102 5.74455 25.1181 5.74409 25.1262C5.74354 25.137 5.74244 25.1476 5.74244 25.1585C5.74244 25.159 5.74252 25.1595 5.74252 25.16C5.74252 25.1751 5.74362 25.1899 5.74471 25.2048C5.74518 25.2095 5.74502 25.2144 5.74557 25.2191C5.74713 25.2342 5.74971 25.2491 5.75244 25.264C5.75323 25.2684 5.75362 25.2728 5.75448 25.2771C5.75674 25.2884 5.75994 25.2992 5.76291 25.3102C5.76494 25.318 5.76659 25.3259 5.76893 25.3334C5.76963 25.3355 5.77057 25.3376 5.77119 25.3398C5.79955 25.427 5.84768 25.5052 5.91049 25.5691C5.91166 25.5703 5.9126 25.5716 5.91377 25.5727C5.92002 25.579 5.92682 25.5846 5.93338 25.5905C5.97377 25.6276 6.0194 25.659 6.06932 25.6836C6.07971 25.6888 6.08995 25.6941 6.10057 25.6986C6.10377 25.7 6.10721 25.7009 6.11049 25.7022C6.12518 25.708 6.13995 25.7137 6.15518 25.7184C6.15659 25.7188 6.15791 25.7191 6.15932 25.7195C6.17666 25.7247 6.19416 25.7292 6.21206 25.7329C6.2144 25.7334 6.21682 25.7335 6.21909 25.734C6.23612 25.7372 6.25323 25.7399 6.27065 25.7416C6.27104 25.7416 6.27135 25.7417 6.27174 25.7418C6.29096 25.7437 6.31002 25.7446 6.32893 25.7446C6.32917 25.7446 6.32948 25.7445 6.32979 25.7445H8.93824C9.22629 27.9284 11.0986 29.6198 13.3599 29.6198C15.6211 29.6198 17.4933 27.9284 17.7814 25.7445H27.1798C27.4679 27.9284 29.3401 29.6198 31.6014 29.6198C33.8626 29.6198 35.735 27.9284 36.0231 25.7445H38.6322C38.6326 25.7445 38.633 25.7446 38.6334 25.7446C38.653 25.7446 38.6722 25.7434 38.6912 25.7416C38.6947 25.7413 38.698 25.7405 38.7014 25.7402C38.7166 25.7384 38.7318 25.7362 38.7466 25.7333C38.753 25.732 38.7592 25.7303 38.7655 25.7288C38.777 25.7262 38.7886 25.7234 38.7998 25.72C38.8075 25.7177 38.8149 25.7151 38.8224 25.7125C38.832 25.7092 38.8416 25.7058 38.8511 25.702C38.8592 25.6988 38.867 25.6952 38.8748 25.6917C38.8834 25.6877 38.892 25.6837 38.9004 25.6794C38.9084 25.6753 38.916 25.6711 38.9237 25.6667C38.9317 25.662 38.9397 25.6572 38.9476 25.6522C38.9549 25.6475 38.9623 25.6427 38.9693 25.6377C38.9773 25.6322 38.9848 25.6263 38.9926 25.6204C38.999 25.6153 39.0055 25.6103 39.0117 25.605C39.0198 25.5982 39.0273 25.5911 39.035 25.5838C39.0403 25.5788 39.0459 25.5738 39.051 25.5684C39.0591 25.5602 39.0669 25.5514 39.0746 25.5426C39.0787 25.5378 39.083 25.5332 39.087 25.5284C39.0956 25.5177 39.1034 25.5068 39.1112 25.4958C39.1139 25.492 39.1169 25.4884 39.1194 25.4845C39.129 25.4702 39.138 25.4555 39.1462 25.4403C39.1469 25.4394 39.1475 25.4385 39.1479 25.4375C39.1567 25.4212 39.1648 25.4046 39.1721 25.3874C39.1741 25.3825 39.1757 25.3774 39.1777 25.3725C39.1824 25.3604 39.1871 25.3483 39.1911 25.3357C39.1937 25.3276 39.1955 25.3192 39.1978 25.311C39.2004 25.3012 39.2031 25.2916 39.2053 25.2816C39.2073 25.2728 39.2085 25.2637 39.21 25.2548C39.2113 25.2469 39.213 25.2391 39.2141 25.2311C39.2389 25.032 39.6977 21.3508 39.9027 18.9705C39.9029 18.9683 39.903 18.9659 39.9032 18.9636C39.9622 18.2775 40 17.6997 40 17.3459C40 13.1458 36.583 9.72869 32.3828 9.72869ZM29.7624 10.9007H32.1595L31.8533 14.4161H29.4562L29.7624 10.9007ZM13.3601 28.4478C11.5462 28.4478 10.0706 26.9722 10.0706 25.1584C10.0706 23.3447 11.5463 21.869 13.3601 21.869C15.1738 21.869 16.6494 23.3447 16.6494 25.1584C16.6494 26.9722 15.1738 28.4478 13.3601 28.4478ZM31.6014 28.4478C29.7876 28.4478 28.3121 26.9722 28.3121 25.1584C28.3121 23.3447 29.7877 21.869 31.6014 21.869C33.4152 21.869 34.8908 23.3447 34.8908 25.1584C34.8908 26.9722 33.4152 28.4478 31.6014 28.4478ZM38.1144 24.5723H36.0233C35.7353 22.3883 33.8629 20.6968 31.6015 20.6968C29.3403 20.6968 27.4679 22.3883 27.18 24.5723H17.7816C17.4937 22.3883 15.6214 20.6968 13.3601 20.6968C11.0987 20.6968 9.22629 22.3883 8.93832 24.5723H6.97393L7.46604 19.4938H28.4767V19.4941C28.477 19.4941 28.4772 19.4941 28.4775 19.4941C28.4971 19.4941 28.5166 19.493 28.5358 19.4911C28.5394 19.4908 28.5429 19.49 28.5465 19.4895C28.5618 19.4877 28.5771 19.4855 28.5921 19.4826C28.5985 19.4812 28.6049 19.4794 28.6113 19.4779C28.623 19.4751 28.6347 19.4723 28.6461 19.4689C28.6539 19.4665 28.6614 19.4637 28.6689 19.4611C28.6788 19.4576 28.6886 19.4543 28.6982 19.4504C28.7064 19.447 28.7143 19.4433 28.7222 19.4395C28.7309 19.4355 28.7396 19.4315 28.7479 19.4272C28.7559 19.4229 28.7637 19.4184 28.7716 19.4139C28.7796 19.4092 28.7876 19.4044 28.7954 19.3994C28.803 19.3945 28.8102 19.3894 28.8175 19.3842C28.8252 19.3787 28.8327 19.3731 28.8402 19.3672C28.8469 19.3619 28.8535 19.3563 28.8601 19.3506C28.8675 19.3442 28.8748 19.3376 28.8818 19.3308C28.8878 19.3251 28.8937 19.3193 28.8995 19.3133C28.9065 19.3059 28.9133 19.2983 28.92 19.2906C28.9253 19.2845 28.9304 19.2784 28.9354 19.2722C28.9419 19.264 28.9481 19.2555 28.9542 19.247C28.9588 19.2406 28.9632 19.2342 28.9676 19.2276C28.9733 19.2188 28.9788 19.2097 28.984 19.2005C28.988 19.1936 28.9921 19.1868 28.9957 19.1797C29.0006 19.1705 29.0048 19.1611 29.0093 19.1517C29.0127 19.1441 29.0162 19.1367 29.0193 19.1289C29.0232 19.1197 29.0264 19.1102 29.0297 19.1008C29.0326 19.0924 29.0357 19.084 29.0382 19.0754C29.0408 19.0664 29.0429 19.0571 29.0453 19.0479C29.0475 19.0386 29.05 19.0294 29.0518 19.0199C29.0536 19.0107 29.0547 19.0013 29.0561 18.9919C29.0575 18.9822 29.0592 18.9727 29.0601 18.9629C29.0603 18.9615 29.0606 18.9601 29.0607 18.9587L29.3543 15.5876H32.3826C34.1779 15.5876 34.9876 16.5178 35.8447 17.5026C36.5519 18.3152 37.3416 19.2219 38.6837 19.443C38.5133 21.2454 38.2377 23.5591 38.1144 24.5723ZM38.7839 18.2688C37.9132 18.0913 37.3775 17.4792 36.7285 16.7336C35.9169 15.8011 34.926 14.6632 33.0265 14.4512L33.3297 10.9709C36.4362 11.4303 38.8281 14.1138 38.8281 17.3461C38.8281 17.5657 38.8117 17.8847 38.7839 18.2688Z" fill="#688800"/>
</svg>
