<svg width="40" height="40" viewBox="0 0 40 40" fill="none" xmlns="http://www.w3.org/2000/svg">
<g clip-path="url(#clip0_1_3105)">
<path d="M38.4163 8.82541L20.2547 0.0577539C20.0937 -0.0199023 19.9062 -0.0199023 19.7453 0.0577539L1.58361 8.82541C1.38111 8.92315 1.25244 9.12822 1.25244 9.35307V30.646C1.25244 30.8708 1.38111 31.0759 1.58361 31.1736L19.7452 39.9413C19.8256 39.9801 19.9128 39.9995 19.9999 39.9995C20.0871 39.9995 20.1742 39.9801 20.2547 39.9413L38.4163 31.1736C38.6188 31.0759 38.7474 30.8708 38.7474 30.646V9.35314C38.7474 9.12814 38.6187 8.92322 38.4163 8.82541ZM19.9999 1.23611L36.8138 9.35307L31.9398 11.706C31.9089 11.6825 31.8763 11.6608 31.8406 11.6435L15.141 3.58182L19.9999 1.23611ZM13.8177 4.24432L30.6071 12.3495L27.1684 14.0096L10.386 5.90768L13.8177 4.24432ZM30.9999 13.461V19.5974L27.7879 21.1481V15.0117L30.9999 13.461ZM37.5756 30.2783L20.5859 38.48V18.4885L24.6385 16.5321C24.9299 16.3913 25.0521 16.0411 24.9113 15.7496C24.7706 15.4583 24.4204 15.336 24.1289 15.4767L19.9999 17.4701L18.3753 16.6857C18.0838 16.5449 17.7335 16.6672 17.5928 16.9586C17.4521 17.25 17.5743 17.6003 17.8657 17.741L19.414 18.4885V38.48L2.42432 30.2781V10.2866L15.3618 16.5323C15.4439 16.572 15.5307 16.5907 15.6161 16.5907C15.8339 16.5907 16.0431 16.4687 16.1442 16.2594C16.2849 15.968 16.1627 15.6177 15.8713 15.477L3.18611 9.35307L9.00682 6.54307L26.6079 15.0402C26.6105 15.0438 26.6134 15.047 26.616 15.0505V22.0817C26.616 22.2833 26.7197 22.4707 26.8905 22.578C26.9853 22.6375 27.0935 22.6676 27.2021 22.6676C27.2889 22.6676 27.376 22.6483 27.4567 22.6093L31.8406 20.493C32.0431 20.3953 32.1717 20.1903 32.1717 19.9653V12.8954L37.5756 10.2867V30.2783Z" fill="#688800"/>
<path d="M7.25998 28.0063L4.59475 26.7196C4.30318 26.5788 3.95303 26.7011 3.81232 26.9925C3.67162 27.2839 3.79381 27.6342 4.08521 27.7749L6.75045 29.0616C6.83256 29.1013 6.91936 29.12 7.00475 29.12C7.22256 29.12 7.43178 28.998 7.5328 28.7887C7.67358 28.4972 7.55139 28.147 7.25998 28.0063Z" fill="#688800"/>
<path d="M9.71306 26.4098L4.5986 23.9407C4.30712 23.8 3.95688 23.9222 3.81618 24.2137C3.67556 24.5051 3.79774 24.8554 4.08915 24.9961L9.2036 27.4652C9.28571 27.5048 9.37251 27.5236 9.4579 27.5236C9.67571 27.5236 9.88493 27.4016 9.98595 27.1923C10.1266 26.9007 10.0045 26.5504 9.71306 26.4098Z" fill="#688800"/>
</g>
<defs>
<clipPath id="clip0_1_3105">
<rect width="40" height="40" fill="white"/>
</clipPath>
</defs>
</svg>
