<svg width="40" height="40" viewBox="0 0 40 40" fill="none" xmlns="http://www.w3.org/2000/svg">
<path d="M38.1616 35.0704H37.495V17.6873C39.0002 16.7188 40 15.03 40 13.1109C40 13.009 39.9734 12.9087 39.9228 12.8202L35.2734 4.68365C34.9468 4.11232 34.3352 3.75732 33.6771 3.75732H6.32289C5.66484 3.75732 5.0532 4.11225 4.72664 4.68365L0.0771875 12.8202C0.0266406 12.9087 0 13.009 0 13.1109C0 15.03 0.999844 16.7188 2.505 17.6873V35.0704H1.83844C1.51484 35.0704 1.2525 35.3327 1.2525 35.6563C1.2525 35.9799 1.51484 36.2422 1.83844 36.2422H38.1616C38.4852 36.2422 38.7475 35.9799 38.7475 35.6563C38.7475 35.3327 38.4852 35.0704 38.1616 35.0704ZM1.21227 13.6969H3.0907C3.4143 13.6969 3.67664 13.4345 3.67664 13.1109C3.67664 12.7873 3.4143 12.525 3.0907 12.525H1.59562L5.74414 5.26506C5.86258 5.05787 6.0843 4.9292 6.32289 4.9292H33.6771C33.9157 4.9292 34.1375 5.05787 34.2559 5.26506L38.4043 12.525H36.9089C36.5852 12.525 36.323 12.7873 36.323 13.1109C36.323 13.4345 36.5852 13.6969 36.9089 13.6969H38.7877C38.5012 15.7737 36.7148 17.3785 34.5605 17.3785C32.4062 17.3785 30.6207 15.7736 30.3341 13.6969H34.4041C34.7278 13.6969 34.9901 13.4345 34.9901 13.1109C34.9901 12.7873 34.7278 12.525 34.4041 12.525H5.59617C5.27258 12.525 5.01023 12.7873 5.01023 13.1109C5.01023 13.4345 5.27258 13.6969 5.59617 13.6969H9.66578C9.37922 15.7736 7.59367 17.3785 5.43945 17.3785C3.28508 17.3785 1.49875 15.7737 1.21227 13.6969ZM29.0798 13.6969C28.7933 15.7736 27.0077 17.3785 24.8535 17.3785C22.6992 17.3785 20.9138 15.7736 20.6272 13.6969H29.0798ZM19.3728 13.6969C19.0863 15.7736 17.3007 17.3785 15.1465 17.3785C12.9923 17.3785 11.2067 15.7736 10.9202 13.6969H19.3728ZM33.1917 35.0705H26.8485V33.111H33.1917V35.0705ZM33.1917 31.9391H26.8485V21.212H33.1917V31.9391ZM36.3231 35.0705H34.3637V20.6261C34.3637 20.3025 34.1014 20.0401 33.7777 20.0401H26.2627C25.939 20.0401 25.6767 20.3025 25.6767 20.6261V35.0704H3.67687V18.2556C4.23008 18.4457 4.82258 18.5504 5.43945 18.5504C7.55625 18.5504 9.39445 17.3351 10.293 15.5655C11.1915 17.335 13.0297 18.5504 15.1465 18.5504C17.2633 18.5504 19.1015 17.3351 20 15.5655C20.8985 17.335 22.7367 18.5504 24.8535 18.5504C26.9703 18.5504 28.8085 17.3351 29.707 15.5655C30.6055 17.335 32.4437 18.5504 34.5605 18.5504C35.1774 18.5504 35.7699 18.4457 36.3231 18.2557V35.0705Z" fill="#688800"/>
<path d="M23.1317 20.04H6.22266C5.89906 20.04 5.63672 20.3024 5.63672 20.626V32.525C5.63672 32.8486 5.89906 33.1109 6.22266 33.1109H23.1317C23.4554 33.1109 23.7177 32.8486 23.7177 32.525V20.626C23.7177 20.3023 23.4554 20.04 23.1317 20.04ZM22.5458 31.939H6.80859V21.2119H22.5458V31.939Z" fill="#688800"/>
</svg>
