<svg width="316" height="267" viewBox="0 0 316 267" fill="none" xmlns="http://www.w3.org/2000/svg">
<circle cx="158" cy="109" r="158" fill="#7DA00C"/>
<path d="M145.273 154.426V134.732H146.671V154.426H145.273ZM152.619 92.9535L153.907 93.5252L153.739 93.9113L153.553 94.2883L153.352 94.6537L153.135 95.0101L152.906 95.3572L152.664 95.6963L152.411 96.0274L152.15 96.3517L151.88 96.669L151.605 96.9807L151.323 97.2866L151.037 97.5879L150.748 97.8858L150.458 98.1779L150.167 98.4678L149.876 98.7542L149.588 99.0383L149.302 99.3202L149.021 99.6009L148.744 99.8804L148.475 100.159L148.213 100.436L147.96 100.713L147.718 100.989L147.487 101.264L147.268 101.541L147.062 101.817L146.872 102.093L146.698 102.369L146.539 102.645L146.398 102.922L146.275 103.202L144.991 102.622L145.148 102.268L145.323 101.923L145.516 101.586L145.724 101.258L145.945 100.937L146.179 100.622L146.424 100.312L146.679 100.008L146.942 99.7074L147.212 99.4118L147.489 99.1197L147.769 98.8298L148.054 98.5423L148.342 98.2558L148.631 97.9706L148.92 97.6864L149.207 97.4023L149.493 97.117L149.775 96.8317L150.053 96.5464L150.326 96.2589L150.591 95.9713L150.848 95.6803L151.096 95.3881L151.333 95.0937L151.559 94.797L151.773 94.4968L151.973 94.1943L152.159 93.8896L152.33 93.5802L152.484 93.2686L152.622 92.9512L152.619 92.9535ZM169.447 105.801H145.894V104.336H169.447L170.146 105.068L169.447 105.8V105.801ZM169.447 104.336H170.146V105.068L169.447 104.336ZM168.748 128.843V105.069H170.146V128.843L169.447 129.575L168.748 128.843ZM170.146 128.843V129.575H169.447L170.146 128.843ZM145.894 128.111H169.447V129.576H145.894L145.195 128.844L145.894 128.112V128.111ZM145.894 129.576H145.195V128.844L145.894 129.576ZM146.593 105.069V128.843H145.195V105.069L145.894 104.337L146.593 105.069ZM145.195 105.069V104.337H145.894L145.195 105.069ZM142.361 165.16H172.391V166.626H142.361L141.662 165.894L142.361 165.161V165.16ZM142.361 166.626H141.662V165.894L142.361 166.626ZM141.662 102.909H143.06V104.871V106.835V108.8V110.765V112.731V114.698V116.665V118.632V120.6V122.569V124.538V126.508V128.477V130.447V132.416V134.387V136.357V138.328V140.299V142.269V144.24V146.21V148.181V150.15V152.12V154.089V156.059V158.027V159.996V161.964V163.931V165.898H141.662V163.931V161.964V159.996V158.027V156.059V154.089V152.12V150.15V148.181V146.21V144.24V142.269V140.299V138.328V136.357V134.387V132.416V130.447V128.477V126.508V124.538V122.569V120.6V118.632V116.665V114.698V112.731V110.765V108.8V106.835V104.871V102.909ZM152.518 87.4198V88.8851L153.217 88.153L153.181 88.7087L153.081 89.2552L152.922 89.7902L152.713 90.3115L152.458 90.8225L152.163 91.3232L151.833 91.8158L151.472 92.3028L151.084 92.784L150.672 93.2606L150.241 93.7337L149.793 94.2035L149.333 94.6709L148.863 95.1361L148.389 95.5989L147.911 96.0607L147.437 96.5189L146.968 96.9761L146.509 97.4321L146.063 97.8846L145.633 98.3349L145.225 98.7829L144.843 99.2274L144.488 99.6673L144.165 100.103L143.879 100.531L143.631 100.953L143.426 101.365L143.265 101.766L143.149 102.157L143.08 102.535L143.057 102.905H141.659L141.693 102.347L141.794 101.799L141.953 101.263L142.162 100.74L142.417 100.228L142.712 99.7246L143.042 99.2308L143.402 98.7439L143.79 98.2616L144.203 97.7838L144.633 97.3106L145.081 96.8397L145.542 96.3712L146.011 95.906L146.485 95.4431L146.962 94.9814L147.436 94.5231L147.905 94.066L148.364 93.6112L148.81 93.1586L149.24 92.7083L149.647 92.2615L150.03 91.8181L150.385 91.3782L150.707 90.944L150.993 90.5155L151.24 90.095L151.446 89.6837L151.606 89.2838L151.721 88.8954L151.791 88.5185L151.814 88.1507L152.513 87.4186L152.518 87.4198ZM151.819 88.1519V87.4198H152.518L151.819 88.1519ZM162.564 88.0889H161.166L161.865 88.821H161.274L160.742 88.8221L160.262 88.8233L159.834 88.8244L159.452 88.8255L159.113 88.8278L158.813 88.8301L158.547 88.8324L158.312 88.8347L158.104 88.837L157.92 88.8393L157.755 88.8427L157.604 88.845L157.465 88.8485L157.333 88.8508L157.207 88.8542L157.077 88.8576L156.945 88.8599L156.803 88.8634L156.651 88.8656L156.483 88.8691L156.294 88.8714L156.083 88.8737L155.846 88.876L155.577 88.8783L155.275 88.8805L154.934 88.8828L154.55 88.884L154.12 88.8851L153.64 88.8863L153.107 88.8874H152.515V87.4221H153.106L153.638 87.4209L154.118 87.4198L154.546 87.4186L154.928 87.4175L155.266 87.4152L155.567 87.4129L155.833 87.4106L156.069 87.4083L156.276 87.406L156.46 87.4037L156.625 87.4003L156.775 87.398L156.914 87.3946L157.046 87.3923L157.172 87.3888L157.302 87.3854L157.434 87.3831L157.575 87.3797L157.727 87.3774L157.895 87.3739L158.084 87.3717L158.294 87.3694L158.531 87.3671L158.799 87.3648L159.101 87.3625L159.442 87.3602L159.826 87.359L160.255 87.3579L160.735 87.3568L161.269 87.3556H161.86L162.559 88.0877L162.564 88.0889ZM161.865 87.3568H162.564V88.0889L161.865 87.3568ZM173.089 102.755H171.691L171.668 102.395L171.596 102.025L171.477 101.643L171.311 101.246L171.099 100.838L170.842 100.42L170.546 99.995L170.212 99.5619L169.844 99.1243L169.447 98.682L169.024 98.2364L168.579 97.7884L168.117 97.337L167.641 96.8833L167.155 96.4273L166.663 95.9702L166.169 95.5107L165.677 95.0502L165.19 94.5873L164.714 94.1221L164.25 93.6547L163.803 93.1827L163.377 92.7083L162.975 92.2294L162.602 91.7459L162.259 91.2556L161.954 90.7572L161.689 90.2485L161.471 89.7284L161.307 89.1956L161.201 88.6491L161.165 88.0923H162.562L162.586 88.452L162.657 88.8221L162.777 89.2048L162.943 89.6012L163.155 90.0091L163.411 90.4272L163.708 90.8523L164.042 91.2854L164.41 91.723L164.807 92.1653L165.23 92.611L165.675 93.0589L166.137 93.5103L166.613 93.964L167.098 94.42L167.589 94.8772L168.084 95.3366L168.576 95.7972L169.062 96.26L169.539 96.7252L170.003 97.1926L170.45 97.6647L170.876 98.139L171.278 98.6179L171.651 99.1014L171.993 99.5917L172.299 100.09L172.564 100.599L172.782 101.119L172.946 101.652L173.051 102.198L173.088 102.755H173.089ZM171.691 165.894V102.755H173.089V165.894L172.39 166.626L171.691 165.894ZM173.089 165.894V166.626H172.39L173.089 165.894ZM153.215 67.9428V88.1519H151.818V67.9428L152.517 67.2107L153.215 67.9428ZM151.818 67.9428V67.2107H152.517L151.818 67.9428ZM161.863 68.6749H152.515V67.2096H161.863L162.562 67.9417L161.863 68.6738V68.6749ZM161.863 67.2096H162.562V67.9417L161.863 67.2096ZM161.165 88.0877V67.9417H162.562V88.0877H161.165ZM151.607 66.2518L152.95 67.3677L152.083 68.5168L150.739 67.4009L150.474 66.828L151.607 66.2518ZM150.739 67.4009L150.476 67.1821L150.474 66.828L150.739 67.4009ZM151.867 64.4175L151.872 66.8246L150.474 66.828L150.469 64.4209L150.773 63.8148L151.867 64.4175ZM150.469 64.4209L150.468 64.0337L150.772 63.8148L150.468 64.4209H150.469ZM152.911 64.0531L151.563 65.0236L150.773 63.8148L152.122 62.8444L152.517 62.7161L152.911 64.0531V64.0531ZM152.122 62.8444L152.3 62.7161H152.517L152.122 62.8444ZM161.865 64.1815H152.517V62.7161H161.865L162.259 62.8444L161.865 64.1815V64.1815ZM161.865 62.7161H162.082L162.259 62.8444L161.865 62.7161ZM162.811 65.0178L161.469 64.0531L162.258 62.8444L163.6 63.8091L163.904 64.4129L162.811 65.0167V65.0178ZM163.6 63.8091L163.904 64.0279V64.414L163.6 63.8103V63.8091ZM162.506 66.8258V64.4129H163.904V66.8258L163.639 67.3997L162.506 66.8258ZM163.904 66.8258V67.1798L163.639 67.3997L163.904 66.8258ZM161.431 67.3677L162.773 66.2518L163.64 67.3997L162.298 68.5157L161.431 67.3677ZM154.551 56.7333V63.4471H153.153V56.7333L153.852 56.0011L154.551 56.7333V56.7333ZM153.153 56.7333V56.0011H153.852L153.153 56.7333ZM160.528 57.4654H153.852V56H160.528L161.227 56.7321L160.528 57.4642V57.4654ZM160.528 56H161.227V56.7321L160.528 56ZM159.829 63.4471V56.7333H161.227V63.4471H159.829Z" fill="white"/>
<path d="M136.914 211C136.033 211 134.925 210.131 133.592 208.391C132.258 206.652 130.93 204.559 129.609 202.112C128.287 199.666 127.211 197.424 126.381 195.383C125.802 197.397 125.123 199.882 124.342 202.838C123.914 204.512 123.297 206.788 122.492 209.666C121.837 209.666 121.258 209.476 120.755 209.097C120.252 208.717 120 208.253 120 207.704C120 207.312 120.177 206.592 120.529 205.546C122.215 200.105 123.762 195.416 125.172 191.479C126.581 187.543 128.217 183.378 130.08 178.983C129.123 179.139 128.298 179.369 127.606 179.669C126.914 179.97 126.166 180.342 125.36 180.787C124.882 181.074 124.58 181.218 124.454 181.218C124.277 181.218 124.039 181.087 123.736 180.825C123.435 180.564 123.284 180.341 123.284 180.158C126.506 178.72 129.337 178 131.778 178C133.339 178 134.849 178.262 136.308 178.785C137.768 179.308 138.97 180.119 139.914 181.217C140.857 182.315 141.33 183.689 141.33 185.337C141.33 187.664 140.429 189.463 138.63 190.732C136.831 192 134.867 192.838 132.741 193.243C130.614 193.648 128.783 193.851 127.247 193.851C127.499 194.322 127.731 194.754 127.946 195.146C128.16 195.539 128.355 195.89 128.53 196.205C129.613 198.219 130.562 199.88 131.382 201.187C132.199 202.495 133.218 203.875 134.439 205.326C135.659 206.777 137.127 208.236 138.838 209.701C138.687 210.041 138.416 210.343 138.026 210.604C137.636 210.865 137.264 210.997 136.913 210.997L136.914 211ZM126.984 193.226C128.972 193.095 130.861 192.702 132.647 192.048C134.434 191.395 135.906 190.44 137.065 189.184C138.223 187.927 138.801 186.372 138.801 184.515C138.801 182.527 138.153 181.081 136.855 180.18C135.56 179.277 133.955 178.826 132.042 178.826C130.532 181.966 128.846 186.765 126.983 193.226H126.984ZM142.69 206.645C142.338 206.645 142.049 206.553 141.822 206.371C141.595 206.188 141.482 205.926 141.482 205.586C141.482 205.168 141.72 204.795 142.199 204.467C142.677 204.14 143.167 203.977 143.67 203.977C144.324 203.977 144.652 204.291 144.652 204.918C144.652 205.311 144.445 205.697 144.029 206.076C143.614 206.455 143.167 206.645 142.689 206.645H142.69ZM151.865 207.507C150.833 207.507 150.078 207.181 149.599 206.527C149.12 205.874 148.882 205.01 148.882 203.937C148.882 202.864 149.096 201.74 149.524 200.563C149.952 199.386 150.506 198.405 151.185 197.62C151.865 196.835 152.545 196.442 153.225 196.442C153.451 196.442 153.715 196.509 154.017 196.639C153.714 196.9 153.351 197.475 152.922 198.365C152.494 199.255 152.122 200.202 151.808 201.209C151.493 202.216 151.336 203.033 151.336 203.662C151.336 205.153 151.789 205.899 152.696 205.899C153.225 205.899 153.854 205.611 154.584 205.035C155.314 204.459 156.031 203.701 156.736 202.759C156.031 202.157 155.483 201.373 155.094 200.406C154.703 199.438 154.509 198.43 154.509 197.385C154.509 196.024 154.843 194.86 155.509 193.892C156.176 192.924 157.077 192.44 158.209 192.44C159.165 192.44 159.838 192.707 160.229 193.244C160.619 193.78 160.814 194.519 160.814 195.461C160.814 196.455 160.581 197.573 160.115 198.815C159.649 200.057 159.039 201.267 158.284 202.444C158.738 202.705 159.216 202.837 159.719 202.837C160.449 202.837 161.204 202.608 161.985 202.15C162.765 201.693 163.357 200.98 163.76 200.013L164.212 200.404C163.734 201.556 163.054 202.405 162.173 202.955C161.292 203.504 160.386 203.778 159.455 203.778C158.775 203.778 158.17 203.647 157.642 203.385C156.736 204.615 155.774 205.61 154.754 206.368C153.734 207.127 152.772 207.506 151.866 207.506L151.865 207.507ZM157.414 201.74C158.068 200.72 158.597 199.68 159.001 198.621C159.403 197.561 159.605 196.587 159.605 195.697C159.605 194.965 159.498 194.415 159.283 194.05C159.07 193.684 158.8 193.5 158.472 193.5C158.12 193.5 157.761 193.677 157.396 194.03C157.031 194.383 156.729 194.867 156.49 195.481C156.251 196.096 156.131 196.77 156.131 197.502C156.131 198.314 156.238 199.092 156.452 199.837C156.666 200.582 156.988 201.217 157.415 201.74H157.414ZM166.174 207.43C165.142 207.43 164.38 207.063 163.889 206.332C163.398 205.599 163.154 204.618 163.154 203.389C163.154 201.035 163.933 197.837 165.495 193.796C167.055 189.755 168.798 186.113 170.725 182.869C172.65 179.626 174.04 178.003 174.896 178.003C175.249 178.003 175.545 178.323 175.783 178.964C176.022 179.605 176.142 180.253 176.142 180.907C176.142 182.11 175.671 183.882 174.727 186.223C173.782 188.564 172.543 190.938 171.007 193.344C169.471 195.751 167.835 197.699 166.1 199.19C165.772 200.707 165.608 202.028 165.608 203.153C165.608 205.168 166.162 206.174 167.269 206.174C168.201 206.174 169.15 205.561 170.119 204.331C171.088 203.102 171.95 201.623 172.705 199.897L173.273 200.211C171.107 205.024 168.742 207.431 166.175 207.431L166.174 207.43ZM166.438 197.857C167.823 196.417 169.175 194.606 170.497 192.422C171.819 190.237 172.894 188.145 173.725 186.145C174.555 184.143 174.971 182.699 174.971 181.809C174.971 181.39 174.883 181.182 174.706 181.182C174.354 181.182 173.63 182.078 172.535 183.869C171.441 185.66 170.314 187.852 169.156 190.442C167.998 193.031 167.092 195.503 166.437 197.857H166.438ZM179.2 189.303C178.747 189.303 178.376 189.192 178.086 188.969C177.796 188.748 177.651 188.426 177.651 188.008C177.651 187.485 177.954 187.013 178.557 186.596C179.162 186.178 179.778 185.969 180.407 185.969C181.238 185.969 181.653 186.375 181.653 187.186C181.653 187.683 181.395 188.16 180.88 188.617C180.364 189.075 179.804 189.304 179.2 189.304V189.303ZM174.669 207.273C173.737 207.273 173.021 206.966 172.517 206.351C172.013 205.736 171.762 204.946 171.762 203.977C171.762 202.957 172.046 201.545 172.611 199.74C173.177 197.934 173.883 196.352 174.725 194.991C175.568 193.631 176.393 192.951 177.198 192.951C177.425 192.951 177.62 193.028 177.783 193.186C177.946 193.343 178.029 193.553 178.029 193.813C178.029 194.18 177.627 195.056 176.821 196.442C175.99 197.882 175.33 199.169 174.838 200.307C174.347 201.445 174.102 202.524 174.102 203.544C174.102 204.459 174.247 205.081 174.536 205.409C174.826 205.735 175.298 205.899 175.952 205.899C177.916 205.899 179.854 203.897 181.767 199.896L182.107 200.288C181.402 202.486 180.364 204.199 178.992 205.428C177.62 206.657 176.179 207.272 174.669 207.272V207.273ZM183.655 207.509C182.623 207.509 181.868 207.182 181.389 206.528C180.91 205.875 180.672 205.011 180.672 203.938C180.672 202.865 180.886 201.741 181.314 200.564C181.742 199.388 182.296 198.406 182.975 197.621C183.655 196.836 184.335 196.443 185.014 196.443C185.241 196.443 185.505 196.51 185.807 196.64C185.504 196.902 185.14 197.476 184.712 198.366C184.284 199.256 183.913 200.203 183.598 201.21C183.284 202.218 183.126 203.034 183.126 203.663C183.126 205.154 183.58 205.9 184.486 205.9C185.014 205.9 185.643 205.612 186.373 205.036C187.103 204.46 187.82 203.702 188.524 202.76C187.82 202.158 187.273 201.374 186.882 200.407C186.493 199.439 186.297 198.431 186.297 197.386C186.297 196.025 186.632 194.861 187.298 193.893C187.965 192.926 188.864 192.441 189.997 192.441C190.954 192.441 191.627 192.709 192.017 193.246C192.407 193.781 192.603 194.521 192.603 195.462C192.603 196.456 192.37 197.574 191.904 198.816C191.438 200.058 190.828 201.268 190.073 202.445C190.525 202.707 191.003 202.838 191.508 202.838C192.238 202.838 192.993 202.609 193.773 202.151C194.553 201.694 195.145 200.981 195.548 200.014L196 200.406C195.522 201.557 194.842 202.406 193.961 202.956C193.08 203.505 192.174 203.779 191.242 203.779C190.562 203.779 189.958 203.648 189.429 203.386C188.523 204.616 187.561 205.611 186.541 206.369C185.522 207.128 184.56 207.507 183.654 207.507L183.655 207.509ZM189.205 201.741C189.859 200.721 190.388 199.681 190.791 198.622C191.193 197.562 191.395 196.588 191.395 195.698C191.395 194.966 191.288 194.417 191.074 194.051C190.861 193.685 190.59 193.501 190.263 193.501C189.911 193.501 189.552 193.679 189.187 194.032C188.823 194.385 188.52 194.868 188.281 195.483C188.042 196.097 187.922 196.771 187.922 197.504C187.922 198.315 188.029 199.093 188.243 199.838C188.457 200.583 188.779 201.218 189.206 201.741H189.205Z" fill="white"/>
</svg>
