<svg width="24" height="24" viewBox="0 0 24 24" fill="none" xmlns="http://www.w3.org/2000/svg">
<g clip-path="url(#clip0_1_3466)">
<path d="M15.5683 0.539531C14.4172 0.181547 13.2167 0 12 0C8.79469 0 5.78123 1.24823 3.51469 3.51469C1.24823 5.78123 0 8.79469 0 12C0 14.4047 0.70875 16.7248 2.04961 18.7095C3.35789 20.646 5.18348 22.1493 7.32891 23.0568C7.37372 23.0757 7.42022 23.0847 7.46597 23.0847C7.60327 23.0847 7.73372 23.004 7.79058 22.8696C7.86638 22.6904 7.78256 22.4837 7.60336 22.408C5.58375 21.5538 3.86517 20.1385 2.63334 18.3152C1.37152 16.4473 0.704484 14.2636 0.704484 12C0.704484 8.98289 1.87941 6.1463 4.01288 4.01288C6.1463 1.87945 8.98289 0.704531 12 0.704531C13.1457 0.704531 14.2758 0.875344 15.3591 1.21228C15.5447 1.26998 15.7423 1.16634 15.8001 0.980531C15.8578 0.794766 15.7541 0.597328 15.5683 0.539531Z" fill="#949494"/>
<path d="M22.0803 5.48691C20.8572 3.59771 19.1369 2.09358 17.1054 1.13714C16.9293 1.05432 16.7195 1.12974 16.6366 1.3058C16.5537 1.48182 16.6292 1.69168 16.8053 1.77455C18.7177 2.67488 20.3373 4.09102 21.4889 5.86974C22.6708 7.69524 23.2955 9.81507 23.2955 12C23.2955 15.0171 22.1206 17.8537 19.9871 19.9871C17.8538 22.1206 15.0172 23.2955 12.0001 23.2955C10.9747 23.2955 9.95856 23.1581 8.98 22.8873C8.79259 22.8356 8.59848 22.9454 8.54654 23.1329C8.49465 23.3204 8.60457 23.5144 8.79207 23.5664C9.83186 23.8541 10.9112 24 12.0001 24C15.2054 24 18.2188 22.7518 20.4853 20.4853C22.7518 18.2188 24.0001 15.2053 24.0001 12C24.0001 9.67894 23.3363 7.42674 22.0803 5.48691Z" fill="#949494"/>
<path d="M15.4436 14.9461L12.4977 12.0003L15.4435 9.05441C15.5811 8.91688 15.5811 8.6938 15.4435 8.55627C15.306 8.41874 15.0829 8.41874 14.9454 8.55627L11.9996 11.5021L9.05372 8.55632C8.91619 8.41879 8.69311 8.41879 8.55558 8.55632C8.418 8.69385 8.418 8.91693 8.55558 9.05446L11.5014 12.0003L8.55558 14.9461C8.418 15.0837 8.418 15.3067 8.55558 15.4443C8.62434 15.513 8.71448 15.5474 8.80467 15.5474C8.89486 15.5474 8.98495 15.513 9.05376 15.4443L11.9996 12.4984L14.9454 15.4443C15.0142 15.513 15.1044 15.5474 15.1945 15.5474C15.2847 15.5474 15.3748 15.513 15.4436 15.4443C15.5812 15.3067 15.5812 15.0837 15.4436 14.9461Z" fill="#949494"/>
</g>
<defs>
<clipPath id="clip0_1_3466">
<rect width="24" height="24" fill="white"/>
</clipPath>
</defs>
</svg>
